<svg id="レイヤー_1" data-name="レイヤー 1" xmlns="http://www.w3.org/2000/svg" viewBox="0 0 1920 1080"><defs><style>.cls-1{fill:#2c25b0;}.cls-2{fill:#fff;}</style></defs><rect class="cls-1" x="-9.5" y="-9.5" width="1939" height="1099"/><path class="cls-2" d="M1141.63,815.4c0-2.64,2.64-5,9.48-8.64,1.68,1.08,3,1.44,9.36,1.44h33.36c9.36,0,13.68-.6,18.12-2a4.89,4.89,0,0,1,1.08,2.52c-5.88,2.76-6,3.24-6,14v62c0,5.16-.12,5.64-4.56,7l-16,4.8a4.89,4.89,0,0,1-1.08-2.52c8.28-3.6,8.4-4.08,8.4-17V843.84l-.6-.12c-6,9.72-15.48,16.08-26,16.08-12.24,0-21.36-8.4-21.36-21.6,0-7.32,4.08-13.92,10.8-18.72h-2.4C1143.55,819.48,1141.63,818.76,1141.63,815.4ZM1175,848.64c7.56,0,13-3.6,18.84-11V819.48H1162c-2.16,2.88-3.24,7.2-3.24,12.72C1158.79,842.76,1165.39,848.64,1175,848.64Z"/><path class="cls-2" d="M1166.23,784.32c2.28,0,7,4.68,7,7s-4.68,7-7,7-7-4.68-7-7S1164,784.32,1166.23,784.32Zm4.08-4.2c0-2.16,4.44-6.6,6.6-6.6s6.6,4.44,6.6,6.6-4.44,6.6-6.6,6.6S1170.31,782.28,1170.31,780.12Zm17.28,4.2c2.28,0,7,4.68,7,7s-4.68,7-7,7-7-4.68-7-7S1185.31,784.32,1187.59,784.32Z"/><path class="cls-2" d="M1227.43,813.6a17.46,17.46,0,0,0-4.8,1.2,4.08,4.08,0,0,1-1.08-2.4l.12-.24c7.2-3.24,15.48-5.4,18.48-5.4,1.44,0,2,.72,2,3.84V823l.6.12c5.88-9.72,15.12-16.08,25.44-16.08,9.72,0,17.4,5.28,20.16,13.92,5.88-8.52,14.64-13.92,24.12-13.92,12.24,0,21.36,8.4,21.36,21.6,0,17.88-15.12,31.2-29.16,31.2-6.72,0-9.72-3.6-9.72-8.52,0-6.24,5.28-8.64,9.12-8.64a4.08,4.08,0,0,1,1.2.12c1.44,4.92,3.84,9.36,7.56,9.36,4.92,0,8-6.12,8-15.12,0-12.12-6.36-18.84-15.6-18.84-6.24,0-11,2.52-15.84,7.56a23.12,23.12,0,0,1,.12,2.88c0,17.88-15.12,31.2-29.16,31.2-6.72,0-9.72-3.6-9.72-8.52,0-6.24,5.28-8.64,9.12-8.64a4.08,4.08,0,0,1,1.2.12c1.44,4.92,3.84,9.36,7.56,9.36,4.92,0,8-6.12,8-15.12,0-12.12-6.36-18.84-15.6-18.84-7.56,0-13,3.6-18.84,11v19.08c0,5.16-.24,5.64-4.56,7.08L1224.07,860a4.89,4.89,0,0,1-1.08-2.52c5.88-2.76,6-3.24,6-14V819.36C1229,814.44,1228.75,813.6,1227.43,813.6Z"/><path class="cls-2" d="M1383.55,815.52c0,6.24-5.28,8.64-9.12,8.64a4.08,4.08,0,0,1-1.2-.12c-1.44-4.92-3.84-9.36-7.56-9.36-4.92,0-8,6.12-8,15.12,0,12.12,6.36,18.84,15.6,18.84,7.56,0,13-3.6,18.84-11V817.92c0-5.16.24-5.64,4.56-7.08l13.56-4.68a4.89,4.89,0,0,1,1.08,2.52c-5.88,2.76-6,3.24-6,14v24.72c0,4.92.24,5.76,1.56,5.76a17.46,17.46,0,0,0,4.8-1.2,4.08,4.08,0,0,1,1.08,2.4l-.12.24c-7.2,3.24-15.48,5.4-18.48,5.4-1.44,0-2-.72-2-3.84V843.84l-.6-.12c-5.88,9.72-15.12,16.08-25.44,16.08-12.24,0-21.36-8.4-21.36-21.6,0-17.88,15.12-31.2,29.16-31.2C1380.55,807,1383.55,810.6,1383.55,815.52Z"/><path class="cls-2" d="M1367.59,784.32c2.28,0,7,4.68,7,7s-4.68,7-7,7-7-4.68-7-7S1365.31,784.32,1367.59,784.32Zm4.08-4.2c0-2.16,4.44-6.6,6.6-6.6s6.6,4.44,6.6,6.6-4.44,6.6-6.6,6.6S1371.67,782.28,1371.67,780.12Zm17.28,4.2c2.28,0,7,4.68,7,7s-4.68,7-7,7-7-4.68-7-7S1386.67,784.32,1389,784.32Z"/><path class="cls-2" d="M521.05,839.16c0-17.16,9-27,49.2-56.76a3.63,3.63,0,0,1,1.68,2.28c-34.08,27.12-41.52,38.16-41.52,50.88,0,10.92,6.12,18.36,16.92,18.36,8.64,0,13.8-5.28,13.8-14.16,0-6.36-3.12-10.56-8.88-13.92a8.13,8.13,0,0,1,7.8-5.76c6.24,0,10,5.88,10,13.68,0,13-12.6,26.28-29.76,26.28C527.77,860,521.05,851,521.05,839.16Z"/><path class="cls-2" d="M528.85,774.24c1.92,0,6,4.08,6,6s-4.08,6-6,6-6-4.08-6-6S526.93,774.24,528.85,774.24Zm4.68-4.8c0-1.92,4.08-6,6-6s6,4.08,6,6-4.08,6-6,6S533.53,771.36,533.53,769.44Zm16.68,4.8c1.92,0,6,4.08,6,6s-4.08,6-6,6-6-4.08-6-6S548.29,774.24,550.21,774.24Z"/><path class="cls-2" d="M585.61,815.16a15.13,15.13,0,0,0-4.8,1.44,4.08,4.08,0,0,1-1.08-2.4l.12-.24c5.76-2.88,12.48-4.8,14.88-4.8,1.44,0,2,.72,2,3.84v11.16l.6.12c5.64-9,14.4-14.88,24.24-14.88,9.36,0,16.92,4.92,19.92,13.2,5.64-8,13.92-13.2,23.16-13.2,12.24,0,21.36,8.4,21.36,21.6,0,16.44-14.16,28.8-27.36,28.8-5.52,0-7.92-2.88-7.92-6.72,0-4.92,4.2-6.84,7.32-6.84a4.08,4.08,0,0,1,1.2.12c1.08,3.84,3.12,7.32,7,7.32,5.76,0,10.44-6.72,10.44-16.68,0-12.12-6.6-18.84-16.2-18.84-7.08,0-12.36,2.88-17.76,8.88.12,1.32.24,2.64.24,4,0,16.44-14.16,28.8-27.36,28.8-5.52,0-7.92-2.88-7.92-6.72,0-4.92,4.2-6.84,7.32-6.84a4.08,4.08,0,0,1,1.2.12c1.08,3.84,3.12,7.32,7,7.32,5.76,0,10.44-6.72,10.44-16.68,0-12.12-6.6-18.84-16.2-18.84-8.28,0-14.16,4-20.64,12.24v19.08c0,5.16-.24,5.52-4.56,7.08l-10,3.48a4.89,4.89,0,0,1-1.08-2.52c5.88-2.76,6-3.24,6-14V820.92C587.17,816,586.93,815.16,585.61,815.16Z"/><path class="cls-2" d="M733.33,816.12c0,4.92-4.2,6.84-7.32,6.84a4.08,4.08,0,0,1-1.2-.12c-1.08-3.84-3.12-7.32-7-7.32-5.76,0-10.44,6.72-10.44,16.68,0,12.12,6.6,18.84,16.2,18.84,8.28,0,14.16-4,20.64-12.24V819.72c0-5.16.24-5.52,4.56-7.08l10-3.48a4.89,4.89,0,0,1,1.08,2.52c-5.88,2.76-6,3.24-6,14v22.56c0,4.92.24,5.76,1.56,5.76a14,14,0,0,0,4.68-1.32,3.77,3.77,0,0,1,1.2,2.28l-.12.24c-5.76,2.88-12.48,4.8-14.88,4.8-1.44,0-2-.72-2-3.84V845l-.6-.12c-5.64,9-14.4,14.88-24.24,14.88-12.24,0-21.36-8.4-21.36-21.6,0-16.44,14.16-28.8,27.36-28.8C730.93,809.4,733.33,812.28,733.33,816.12Z"/><path class="cls-2" d="M718.57,788.64c1.92,0,6,4.08,6,6s-4.08,6-6,6-6-4.08-6-6S716.65,788.64,718.57,788.64Zm4.68-4.8c0-1.92,4.08-6,6-6s6,4.08,6,6-4.08,6-6,6S723.25,785.76,723.25,783.84Zm16.68,4.8c1.92,0,6,4.08,6,6s-4.08,6-6,6-6-4.08-6-6S738,788.64,739.93,788.64Z"/><path class="cls-2" d="M541,949.16c0,7.6.4,7.92,5.52,8.24.24,0,.32.48.32.88s-.08,1.12-.4,1.12c-1.52,0-7-.24-9-.24-3,0-7.44.24-9,.24-.32,0-.4-.48-.4-1s.08-1,.4-1c5.28-.24,5.6-.64,5.6-8.24V920.68c0-7.6-.24-7.92-5.36-8.24-.24,0-.32-.48-.32-1s.08-1,.4-1c1.44,0,6,.16,8.72.16,2.48,0,7.84-.24,10.32-.24,6.48,0,15.52.8,15.52,10.56,0,5.68-3.12,10.88-10.88,13.76v.4C558.4,936.6,560,939.64,562,948c1.92,7.92,2.88,9.44,7.76,9.52.24,0,.32.4.32.8,0,.72-.16,1.2-.4,1.2-1.84.08-4.4.16-6.4.16-3,0-5.2,0-6.16-2.48s-1.92-6.72-2.88-10.8l-.16-.64c-1.76-7.12-3-9.44-8.24-9.44H541ZM553.2,931c1.52-1.92,2.4-4.72,2.4-9,0-5.92-3-9.28-9.28-9.28-4.64,0-5.36.72-5.36,3.12V933.8h3.52C548.48,933.8,551.44,933.24,553.2,931Z"/><path class="cls-2" d="M578.64,941.8c0,7,1.76,15.2,10.24,15.2,3.12,0,6.24-1.2,9-4.88.24-.32.32-.4.48-.4.48,0,1.92,1,1.92,1.6,0,.24-.08.32-.32.72a15.48,15.48,0,0,1-12.8,6.24c-9.6,0-15.44-6.4-15.44-16.8,0-11.36,6.64-18,15.92-18,5.44,0,12.8,2.24,12.8,15.12,0,.72-.08,1.2-1,1.2Zm.08-2.56h15c-.24-4.24-.72-11.44-6.88-11.44C581,927.8,579.12,933.8,578.72,939.24Z"/><path class="cls-2" d="M632.4,937.72c0,6.16-3.84,12.48-13.28,12.48a17.67,17.67,0,0,1-4.32-.56,9.73,9.73,0,0,0-1,3.76c0,2.8,4.08,2.16,8.88,2.32,6.32.16,13.68,1.2,13.68,9.6,0,6.16-5.12,13.6-16.88,13.6-12,0-14.56-6.32-14.56-10.4,0-3.36,1.84-5.84,4.4-5.84a4.59,4.59,0,0,1,2,.48,12.51,12.51,0,0,0-1.6,6c0,4.08,2.72,7.12,10.08,7.12,8.56,0,11.84-4.72,11.84-8.56,0-5.44-4.56-6.16-10.16-6.32-6.24-.16-12.8.56-12.8-4.32,0-2.16,1.84-5.44,5-7.84-4.16-1.68-7-5.36-7-11.12,0-7.36,4.72-12.64,12.88-12.64,4.8,0,7.76,1.92,11,1.92,2.4,0,3.6-1,3.76-3a4.68,4.68,0,0,1,1-.16,2.4,2.4,0,0,1,2.4,2.56c0,2.16-1.84,3.28-4.16,3.28a11.43,11.43,0,0,1-3.92-.8l-.24.32A11.94,11.94,0,0,1,632.4,937.72ZM613.2,937c0,5.2,1.12,10.88,6.64,10.88,5,0,6-5.68,6-10.32s-1.12-9.68-6.48-9.68C614.32,927.88,613.2,933.48,613.2,937Z"/><path class="cls-2" d="M671.6,949.16c0,7.6.32,7.92,5.12,8.24.4,0,.4.56.4,1s0,1-.4,1c-2.88,0-7.68.24-9.12.24-1,0-1.76-.4-1.84-1.6l-.32-3.36-.4-.08c-3.2,3.36-6.8,5.68-11.2,5.68-5.52,0-9.76-2.56-9.76-9.28,0-5.6.08-11.28.08-16.8,0-5.12-1-5.6-4.72-5.76-.32,0-.32-.32-.32-.8s0-1,.32-1c2.08-.08,8.32-.24,10-.24,1,0,1.36.56,1.36,1.44,0,1.44-.32,6.08-.32,13.6v6.72c0,5.36.8,8.56,5.52,8.56a10.77,10.77,0,0,0,8.72-4.8,3.88,3.88,0,0,0,.48-2.24c0-5.12.08-10.48.08-15.52,0-5.2-1-5.6-5.2-5.76-.32,0-.4-.32-.4-.8s.08-1,.4-1c2.64-.08,8.8-.24,10.48-.24a1.19,1.19,0,0,1,1.36,1.36c0,1.44-.32,6.16-.32,13.68Z"/><path class="cls-2" d="M696.32,958.28c0,.48-.08,1.12-.32,1.12-1,0-6.24-.24-8.16-.24-2.48,0-6.8.24-7.84.24-.32,0-.4-.48-.4-1s.08-1,.4-1c4.32-.24,4.72-.72,4.72-8.32V914c0-5.2-.8-5.6-5.44-5.6-.16,0-.24-.4-.24-.88s.08-1,.24-1c2.48-.24,9-.64,10.72-.64,1.12,0,1.44.48,1.44,1.6,0,1.6-.32,10.48-.32,21.2v20.32c0,7.6.48,8,5,8.32C696.24,957.4,696.32,957.88,696.32,958.28Z"/><path class="cls-2" d="M720.16,935.8c0-3.76-.88-7.84-5.92-7.84-3.92,0-5.76,1.92-5.76,4.64a8.78,8.78,0,0,0,.56,3,4.69,4.69,0,0,1-3.36,1.52,3,3,0,0,1-3.2-3.28c0-3.84,5.36-8.4,13-8.4,6.8,0,11,2.72,11,10.08,0,3.52-.16,8.16-.16,13.6,0,7.6.24,7.92,5,8.24.32,0,.4.64.4,1s-.08,1-.4,1-7.6.24-8.88.24-1.84-.32-1.92-1.52l-.24-3.28-.4-.08c-2.64,3.12-5.68,5.52-10.48,5.52-5,0-9.2-2.8-9.2-8.32,0-9.52,10.64-11,19.84-11.2C720.16,939.24,720.16,937.4,720.16,935.8Zm-.08,7.2c-5.92,0-13,1.12-13,8.16,0,3.36,1.6,5.76,5,5.76a9,9,0,0,0,7.2-4.16c.64-.88.72-1.6.72-3.76C720,948.28,720,948,720.08,943Z"/><path class="cls-2" d="M746.4,933.88c2.8-5.2,6-8.4,9.44-8.4a3.42,3.42,0,0,1,3.68,3.6,4.87,4.87,0,0,1-2.4,4.08,4.59,4.59,0,0,0-3.68-1.68c-5.12,0-7,5.12-7,10.32v7.44c0,7.76.16,7.92,5.2,8.16.24,0,.32.48.32.88s-.08,1.12-.4,1.12c-1.6,0-6.88-.24-8.4-.24-2.72,0-7,.24-8,.24-.32,0-.32-.48-.32-1s0-1,.32-1c4.4-.24,4.88-.64,4.88-8.08V934c0-5.12-1-5.52-5-5.52-.24,0-.32-.32-.32-.8s.08-1,.32-1c2.32-.24,8.08-.56,9.52-.56,1.2,0,1.6.48,1.6,1.2,0,.88-.08,3.6-.16,6.48Z"/><path class="cls-2" d="M329.54,127.36c.23,0,.31.48.31,1s-.08,1-.31,1c-5.29.32-6.49,1.6-6.49,10.8v11c0,15.68-2.24,26.08-18.32,26.08-11.6,0-17.6-5-17.76-17.92,0-4.32.08-16.64.08-21.76,0-7.6-.32-7.92-5.44-8.24-.24,0-.32-.48-.32-1s.08-1,.4-1c1.36,0,6.8.24,9.12.24,2.64,0,7.28-.24,8.88-.24.24,0,.32.48.32,1s-.08,1-.32,1c-5.12.32-5.52.64-5.52,8.24,0,1.6-.08,17.12-.08,21.12,0,10.8,3.44,15,12,15,12.4,0,13.2-9.44,13.2-25.12v-8.72c0-9.2-1.12-10.24-6.08-10.56-.32,0-.32-.48-.32-1s0-1,.4-1c1.52,0,7,.24,8,.24C322.57,127.6,328,127.36,329.54,127.36Z"/><path class="cls-2" d="M369.05,175.28c0,.48-.08,1.12-.4,1.12-1,0-6.08-.24-7.92-.24-2.32,0-6.8.24-7.76.24-.24,0-.32-.48-.32-1s.08-1,.32-1c4.48-.24,4.48-.88,4.64-8,.08-3.84.08-8.16.08-12.48,0-4.64-.72-7.52-5.68-7.52-4.4,0-7.52,3-9,5.52a4.89,4.89,0,0,0-.48,2.72v11.68c0,7.44.16,7.76,4.4,8.08.16,0,.24.48.24.88s-.08,1.12-.32,1.12c-.8,0-5.92-.24-7.6-.24-2.72,0-7,.24-8,.24-.32,0-.32-.48-.32-1s0-1,.32-1c4.4-.24,4.88-.64,4.88-8.08V151c0-5.12-1-5.52-5-5.52-.24,0-.32-.32-.32-.8s.08-1,.32-1c2.16-.24,8.4-.56,9.84-.56,1.2,0,1.6.48,1.6,1.2,0,.88-.16,2.8-.24,4.56l.32.08c3.28-4,7-6.48,11.84-6.48,5.12,0,9.52,2.72,9.52,8.88,0,5.28-.08,12.08-.08,16.08,0,6.4.8,6.64,4.72,7C369,174.4,369.05,174.88,369.05,175.28Z"/><path class="cls-2" d="M404.65,158.64c0,9.12-4.32,18.64-16.64,18.64-9,0-15.52-5.92-15.52-17,0-8.8,4.56-17.76,16.88-17.76C398.33,142.48,404.65,147.68,404.65,158.64Zm-25-.08c0,7.84,1.52,16.32,9.36,16.32,7.36,0,8.56-8.88,8.56-14.4,0-7.84-1.36-15.68-9.2-15.68C381.13,144.8,379.61,153.28,379.61,158.56Z"/><path class="cls-2" d="M420.49,166.08c0,7.76.32,8,5.52,8.32.16,0,.24.48.24.88s-.08,1.12-.32,1.12c-1.12,0-6.64-.24-8.88-.24-2.48,0-6.8.24-7.68.24-.32,0-.4-.48-.4-1s.08-1,.4-1c4.32-.24,4.72-.72,4.72-8.32V146.8h-4.64c-.16,0-.4-.24-.4-1v-.48c0-1,.16-1.44.4-1.44h4.64v-3.2c0-11,4.08-17,12.8-17,5.44,0,7.92,2.64,7.92,5,0,1.76-1,3-2.8,3a5.19,5.19,0,0,1-2-.4c-.4-3.76-2.08-5.36-4.32-5.36-5.12,0-5.2,5.6-5.2,11.84v6.08h11.6c.16,0,.24.24.24,1v.4c0,1.12-.08,1.52-.32,1.52H420.49Z"/><path class="cls-2" d="M440.73,166.08c0,7.76.24,8,5.52,8.32.16,0,.24.48.24.88s-.08,1.12-.32,1.12c-1.2,0-6.8-.24-8.88-.24-2.48,0-6.8.24-7.68.24-.32,0-.4-.48-.4-1s.08-1,.4-1c4.32-.24,4.72-.72,4.72-8.32V146.8h-4.64c-.16,0-.4-.24-.4-1v-.48c0-1,.16-1.44.4-1.44h4.64v-4.16c0-11,5.2-16.72,15-16.72,7.36,0,10.4,3.36,10.4,5.84a3,3,0,0,1-3.28,3.2,6.85,6.85,0,0,1-2.4-.4c-.32-3.28-2.24-6.24-5.84-6.24-5.44,0-7.52,3-7.52,10.8v7.68h15.52c.16,0,.24.24.24,1v.4c0,1.12-.08,1.52-.32,1.52H440.73Z"/><path class="cls-2" d="M460.25,166.32c0,7.44.4,7.84,4.56,8.08.24,0,.32.48.32.88s-.08,1.12-.4,1.12c-.88,0-5.92-.24-7.76-.24-2.56,0-7,.24-7.92.24-.32,0-.32-.48-.32-1s0-1,.32-1c4.32-.24,4.8-.64,4.8-8.08V149.2c0-2.16-.32-2.4-1.44-2.4h-3.36c-.32,0-.4-1-.4-1.52,0-.32.08-1.44.4-1.44,3,0,8.4-.4,10.16-.4,1,0,1.28.48,1.28,1.36s-.24,6.08-.24,13.44Z"/><path class="cls-2" d="M491,150.72c0-3.28-1.36-5.76-5.68-5.76-6.88,0-9.44,7.36-9.44,14.24s2.24,14.72,10.24,14.72c3.76,0,6.32-1.76,8.56-5.2.24-.4.32-.48.56-.48.4,0,1.84.8,1.84,1.36a1.52,1.52,0,0,1-.24.72c-1.12,1.92-4.48,7-12.64,7-9.36,0-15.44-6.72-15.44-16.4,0-11.44,7.44-18.4,17.28-18.4,7.44,0,10.72,3.92,10.72,7.12,0,2.48-1.68,3.68-3.84,3.68a6.59,6.59,0,0,1-2.08-.32A11.74,11.74,0,0,0,491,150.72Z"/><path class="cls-2" d="M516.41,175.28c0,.48-.08,1.12-.4,1.12-.88,0-5.92-.24-7.76-.24-2.56,0-7,.24-7.92.24-.32,0-.32-.48-.32-1s0-1,.32-1c4.32-.24,4.8-.64,4.8-8.08V151c0-5.12-.88-5.52-4.72-5.52-.32,0-.4-.32-.4-.8s.08-1,.4-1c2.08-.24,8.32-.56,10-.56,1,0,1.36.48,1.36,1.36,0,1.44-.24,6.24-.24,13.76v8.08c0,7.44.4,7.84,4.56,8.08C516.33,174.4,516.41,174.88,516.41,175.28Zm-4.24-43c0,2.16-1,4.48-4,4.48a3.63,3.63,0,0,1-3.84-3.92c0-2.08,1-4.32,4.08-4.32A3.41,3.41,0,0,1,512.17,132.32Z"/><path class="cls-2" d="M539.45,152.8c0-3.76-.88-7.84-5.92-7.84-3.92,0-5.76,1.92-5.76,4.64a8.78,8.78,0,0,0,.56,3,4.69,4.69,0,0,1-3.36,1.52,3,3,0,0,1-3.2-3.28c0-3.84,5.36-8.4,13-8.4,6.8,0,11,2.72,11,10.08,0,3.52-.16,8.16-.16,13.6,0,7.6.24,7.92,5,8.24.32,0,.4.64.4,1s-.08,1-.4,1-7.6.24-8.88.24-1.84-.32-1.92-1.52l-.24-3.28-.4-.08c-2.64,3.12-5.68,5.52-10.48,5.52-5,0-9.2-2.8-9.2-8.32,0-9.52,10.64-11,19.84-11.2C539.45,156.24,539.45,154.4,539.45,152.8Zm-.08,7.2c-5.92,0-13,1.12-13,8.16,0,3.36,1.6,5.76,5,5.76a9,9,0,0,0,7.2-4.16c.64-.88.72-1.6.72-3.76C539.29,165.28,539.29,165,539.37,160Z"/><path class="cls-2" d="M569.05,175.28c0,.48-.08,1.12-.32,1.12-1,0-6.24-.24-8.16-.24-2.48,0-6.8.24-7.84.24-.32,0-.4-.48-.4-1s.08-1,.4-1c4.32-.24,4.72-.72,4.72-8.32V131c0-5.2-.8-5.6-5.44-5.6-.16,0-.24-.4-.24-.88s.08-1,.24-1c2.48-.24,9-.64,10.72-.64,1.12,0,1.44.48,1.44,1.6,0,1.6-.32,10.48-.32,21.2v20.32c0,7.6.48,8,5,8.32C569,174.4,569.05,174.88,569.05,175.28Z"/><path class="cls-2" d="M621.85,127.36c1.92,0,2.56.72,2.56,2.48,0,2.56-.08,6.8-.24,10.24-.08.8-.16.88-1.28.88-.88,0-1.36,0-1.44-.72-1.2-9.52-1.28-10-9.6-10h-3.52V166c0,7.92.08,8.08,6.48,8.4.32,0,.32.48.32.88s0,1.12-.4,1.12c-1.6,0-7.68-.24-10.16-.24-3.28,0-8.08.24-10,.24-.24,0-.24-.48-.24-1s0-1,.24-1c6.48-.24,6.72-.56,6.72-8.4V130.24h-3.2c-8.24,0-8.4.48-9.84,10-.08.72-.56.72-1.36.72-1.2,0-1.36-.08-1.36-.88,0-3.44,0-7.68.08-10.24.08-1.76.8-2.48,2.64-2.48,2.88,0,8.24.24,14.88.24h3.44C612.65,127.6,619.05,127.36,621.85,127.36Z"/><path class="cls-2" d="M634.57,158.8c0,7,1.76,15.2,10.24,15.2,3.12,0,6.24-1.2,9-4.88.24-.32.32-.4.48-.4.48,0,1.92,1,1.92,1.6,0,.24-.08.32-.32.72a15.48,15.48,0,0,1-12.8,6.24c-9.6,0-15.44-6.4-15.44-16.8,0-11.36,6.64-18,15.92-18,5.44,0,12.8,2.24,12.8,15.12,0,.72-.08,1.2-1,1.2Zm.08-2.56h15c-.24-4.24-.72-11.44-6.88-11.44C636.89,144.8,635.05,150.8,634.65,156.24Z"/><path class="cls-2" d="M698.41,175.28c0,.48-.08,1.12-.4,1.12-1,0-6.08-.24-7.92-.24-2.32,0-6.8.24-7.76.24-.24,0-.32-.48-.32-1s.08-1,.32-1c4.48-.24,4.48-.88,4.64-8,.08-3.84.08-8.16.08-12.48,0-4.64-.72-7.52-5.68-7.52-4.4,0-7.52,3-9,5.52a4.89,4.89,0,0,0-.48,2.72v11.68c0,7.44.16,7.76,4.4,8.08.16,0,.24.48.24.88s-.08,1.12-.32,1.12c-.8,0-5.92-.24-7.6-.24-2.72,0-7,.24-8,.24-.32,0-.32-.48-.32-1s0-1,.32-1c4.4-.24,4.88-.64,4.88-8.08V151c0-5.12-1-5.52-5-5.52-.23,0-.31-.32-.31-.8s.08-1,.31-1c2.17-.24,8.41-.56,9.85-.56,1.2,0,1.6.48,1.6,1.2,0,.88-.16,2.8-.24,4.56l.32.08c3.28-4,7-6.48,11.84-6.48,5.12,0,9.52,2.72,9.52,8.88,0,5.28-.08,12.08-.08,16.08,0,6.4.8,6.64,4.72,7C698.33,174.4,698.41,174.88,698.41,175.28Z"/><path class="cls-2" d="M727.61,154.72c0,6.16-3.84,12.48-13.28,12.48a17.67,17.67,0,0,1-4.32-.56,9.73,9.73,0,0,0-1,3.76c0,2.8,4.08,2.16,8.88,2.32,6.32.16,13.68,1.2,13.68,9.6,0,6.16-5.12,13.6-16.88,13.6-12,0-14.57-6.32-14.57-10.4,0-3.36,1.85-5.84,4.41-5.84a4.62,4.62,0,0,1,2,.48,12.51,12.51,0,0,0-1.6,6c0,4.08,2.72,7.12,10.08,7.12,8.56,0,11.84-4.72,11.84-8.56,0-5.44-4.56-6.16-10.16-6.32-6.24-.16-12.8.56-12.8-4.32,0-2.16,1.84-5.44,5-7.84-4.16-1.68-7-5.36-7-11.12,0-7.36,4.72-12.64,12.88-12.64,4.8,0,7.76,1.92,11,1.92,2.4,0,3.6-1,3.76-3a4.68,4.68,0,0,1,1-.16,2.4,2.4,0,0,1,2.4,2.56c0,2.16-1.84,3.28-4.16,3.28a11.43,11.43,0,0,1-3.92-.8l-.24.32A11.94,11.94,0,0,1,727.61,154.72Zm-19.2-.72c0,5.2,1.12,10.88,6.64,10.88,5,0,6-5.68,6-10.32s-1.12-9.68-6.48-9.68C709.53,144.88,708.41,150.48,708.41,154Z"/><path class="cls-2" d="M750,176.4c-.16.4-.24.48-.56.48h-2.88c-.32,0-.56,0-.72-.48l-7.2-22.64c-2.48-7.84-3.12-8-7-8.32-.24,0-.32-.32-.32-.8s.08-1.12.4-1.12c.88,0,5.76.16,7.68.16,2.4,0,6.72-.16,8.16-.16.24,0,.24.48.24,1s0,1-.24,1c-2.8.16-3.84.32-3.84,1.92a13.66,13.66,0,0,0,.72,3l5.28,18.24h.16l8.48-23.92c.16-.4.25-.48.56-.48h2.81c.4,0,.56,0,.71.48l7.85,23.92h.16c2-5.52,3.84-10.8,5.6-16.32a23.46,23.46,0,0,0,1.36-4.88c0-1.6-1.44-1.76-4.64-1.92-.24,0-.32-.32-.32-.8s.08-1.12.4-1.12c1.2,0,5,.16,6.56.16,1.92,0,5.28-.16,6.32-.16.32,0,.32.48.32,1s0,1-.32,1c-3.44.24-4.32.88-7,8.4-2.56,7.36-5.6,15.2-8.24,22.56-.16.4-.32.48-.64.48h-2.56c-.4,0-.56,0-.72-.48l-8-23.36h-.17Z"/><path class="cls-2" d="M806.64,152.8c0-3.76-.88-7.84-5.92-7.84-3.92,0-5.76,1.92-5.76,4.64a8.78,8.78,0,0,0,.56,3,4.69,4.69,0,0,1-3.36,1.52,3,3,0,0,1-3.2-3.28c0-3.84,5.36-8.4,13-8.4,6.8,0,11,2.72,11,10.08,0,3.52-.16,8.16-.16,13.6,0,7.6.24,7.92,5,8.24.32,0,.4.64.4,1s-.08,1-.4,1-7.6.24-8.88.24-1.84-.32-1.92-1.52l-.24-3.28-.4-.08c-2.64,3.12-5.68,5.52-10.48,5.52-5,0-9.2-2.8-9.2-8.32,0-9.52,10.64-11,19.84-11.2C806.64,156.24,806.64,154.4,806.64,152.8Zm-.08,7.2c-5.92,0-13,1.12-13,8.16,0,3.36,1.6,5.76,5,5.76a9,9,0,0,0,7.2-4.16c.64-.88.72-1.6.72-3.76C806.48,165.28,806.48,165,806.56,160Z"/><path class="cls-2" d="M831.76,150.88c2.8-5.2,6-8.4,9.44-8.4a3.42,3.42,0,0,1,3.68,3.6,4.87,4.87,0,0,1-2.4,4.08,4.59,4.59,0,0,0-3.68-1.68c-5.12,0-7,5.12-7,10.32v7.44c0,7.76.16,7.92,5.2,8.16.24,0,.32.48.32.88s-.08,1.12-.4,1.12c-1.6,0-6.88-.24-8.4-.24-2.72,0-7,.24-8,.24-.32,0-.32-.48-.32-1s0-1,.32-1c4.4-.24,4.88-.64,4.88-8.08V151c0-5.12-1-5.52-5-5.52-.24,0-.32-.32-.32-.8s.08-1,.32-1c2.32-.24,8.08-.56,9.52-.56,1.2,0,1.6.48,1.6,1.2,0,.88-.08,3.6-.16,6.48Z"/><path class="cls-2" d="M868.24,158.8c0,7,1.76,15.2,10.24,15.2,3.12,0,6.24-1.2,9-4.88.24-.32.32-.4.48-.4.48,0,1.92,1,1.92,1.6,0,.24-.08.32-.32.72a15.48,15.48,0,0,1-12.8,6.24c-9.6,0-15.44-6.4-15.44-16.8,0-11.36,6.64-18,15.92-18,5.44,0,12.8,2.24,12.8,15.12,0,.72-.08,1.2-1,1.2Zm.08-2.56h15c-.24-4.24-.72-11.44-6.88-11.44C870.56,144.8,868.72,150.8,868.32,156.24Z"/><path class="cls-2" d="M917.52,166.16c4.72,7.28,5.84,7.92,10.16,8.24.32,0,.32.48.32.88s0,1.12-.4,1.12c-1.52,0-6.16-.24-8.08-.24-2.32,0-6.8.24-7.76.24-.4,0-.4-.48-.4-1s0-1,.4-1c1.76-.16,2.32-.56,2.32-1.36,0-1.12-1.2-2.64-2.8-5.2l-3-4.64-3.44,4.56c-1.84,2.48-3.12,4.32-3.12,5.36s.8,1.2,2.72,1.28c.32,0,.32.48.32.88s0,1.12-.4,1.12c-.64,0-4.8-.24-6.24-.24-2.08,0-5.76.24-6.56.24-.4,0-.4-.48-.4-1s0-1,.4-1c3.52-.24,5-.88,10.72-8.32l4.32-5.6-4.48-6.72c-4.72-7-5.84-8.08-9.44-8.32-.24,0-.32-.32-.32-.8s.08-1.12.4-1.12c.88,0,5.52.16,7.36.16,2.4,0,6.88-.16,7.84-.16.32,0,.32.48.32,1s0,1-.32,1c-1.76.08-2.4.4-2.4,1.28s1,2.64,2.88,5.44l2.4,3.68,2.72-3.6c1.92-2.56,3.12-4.56,3.12-5.44s-.64-1.28-2.56-1.36c-.32,0-.32-.32-.32-.8s0-1.12.4-1.12c.72,0,5,.16,6.32.16,2.08,0,5.52-.16,6.32-.16.4,0,.4.48.4,1s0,1-.4,1c-3.44.24-5.36.8-10.88,8.32l-3.44,4.64Z"/><path class="cls-2" d="M939.84,185.2c0,7.44,0,7.68,5.2,8.08.16,0,.24.48.24.88s-.08,1.12-.32,1.12c-1,0-6.08-.24-7.76-.24-2.64,0-7.2.24-8.24.24-.32,0-.4-.48-.4-1s.08-1,.4-1c3.76-.32,4.48-.64,4.48-8.08V151c0-5.12-.88-5.52-4.88-5.52-.32,0-.4-.32-.4-.8s.08-1,.32-1c2.4-.24,8.56-.56,10-.56,1.2,0,1.44.48,1.44,1.2,0,.48,0,1.2-.08,2.72l.32.08c2.88-2.72,6-4.64,10.56-4.64,9.52,0,13.12,7.36,13.12,15.76,0,10.48-5.76,19-16.48,19a13.56,13.56,0,0,1-7.36-2l-.16.08Zm0-15.12c0,3,2.72,4.72,7.44,4.72,7.44,0,9.52-8.16,9.52-15,0-8.88-3.12-14-8.8-14-4.72,0-8.16,3.36-8.16,6.72Z"/><path class="cls-2" d="M988.4,152.8c0-3.76-.88-7.84-5.92-7.84-3.92,0-5.76,1.92-5.76,4.64a8.78,8.78,0,0,0,.56,3,4.69,4.69,0,0,1-3.36,1.52,3,3,0,0,1-3.2-3.28c0-3.84,5.36-8.4,13-8.4,6.8,0,11,2.72,11,10.08,0,3.52-.16,8.16-.16,13.6,0,7.6.24,7.92,5,8.24.32,0,.4.64.4,1s-.08,1-.4,1-7.6.24-8.88.24-1.84-.32-1.92-1.52l-.24-3.28-.4-.08c-2.64,3.12-5.68,5.52-10.48,5.52-5,0-9.2-2.8-9.2-8.32,0-9.52,10.64-11,19.84-11.2C988.4,156.24,988.4,154.4,988.4,152.8Zm-.08,7.2c-5.92,0-13,1.12-13,8.16,0,3.36,1.6,5.76,5,5.76a9,9,0,0,0,7.2-4.16c.64-.88.72-1.6.72-3.76C988.24,165.28,988.24,165,988.32,160Z"/><path class="cls-2" d="M1040,175.28c0,.48-.08,1.12-.4,1.12-1,0-6.08-.24-7.92-.24-2.32,0-6.8.24-7.76.24-.24,0-.32-.48-.32-1s.08-1,.32-1c4.48-.24,4.48-.88,4.64-8,.08-3.84.08-8.16.08-12.48,0-4.64-.72-7.52-5.68-7.52-4.4,0-7.52,3-9,5.52a4.89,4.89,0,0,0-.48,2.72v11.68c0,7.44.16,7.76,4.4,8.08.16,0,.24.48.24.88s-.08,1.12-.32,1.12c-.8,0-5.92-.24-7.6-.24-2.72,0-7,.24-8,.24-.32,0-.32-.48-.32-1s0-1,.32-1c4.4-.24,4.88-.64,4.88-8.08V151c0-5.12-1-5.52-5-5.52-.24,0-.32-.32-.32-.8s.08-1,.32-1c2.16-.24,8.4-.56,9.84-.56,1.2,0,1.6.48,1.6,1.2,0,.88-.16,2.8-.24,4.56l.32.08c3.28-4,7-6.48,11.84-6.48,5.12,0,9.52,2.72,9.52,8.88,0,5.28-.08,12.08-.08,16.08,0,6.4.8,6.64,4.72,7C1039.92,174.4,1040,174.88,1040,175.28Z"/><path class="cls-2" d="M1061.92,152.16c-.32-4.72-1.76-7.28-6.72-7.28-4.32,0-6.8,1.92-6.8,5.28,0,3.68,3.92,5.12,8.08,6.72,4.72,1.84,9.76,4,9.76,10.08,0,7.84-7,10.32-12.8,10.32a27.14,27.14,0,0,1-8.8-1.36c-1.12-.4-1.28-.64-1.28-2.08,0-2.16,0-4.16.16-7.76,0-.8.24-.88,1.28-.88s1.2.08,1.28.8c.56,5.92,2.08,8.72,7.84,8.72,4.24,0,6.64-1.84,6.64-5.2,0-4.4-3.92-5.84-8.08-7.44-4.48-1.76-9.12-3.68-9.12-9.84,0-5.6,4.08-9.76,12.48-9.76a34.86,34.86,0,0,1,7.52.8c1.2.32,1.28.4,1.28,1.92,0,2.16-.08,4.08-.16,6.88,0,.8-.32.88-1.36.88S1062,152.88,1061.92,152.16Z"/><path class="cls-2" d="M1086.08,175.28c0,.48-.08,1.12-.4,1.12-.88,0-5.92-.24-7.76-.24-2.56,0-7,.24-7.92.24-.32,0-.32-.48-.32-1s0-1,.32-1c4.32-.24,4.8-.64,4.8-8.08V151c0-5.12-.88-5.52-4.72-5.52-.32,0-.4-.32-.4-.8s.08-1,.4-1c2.08-.24,8.32-.56,10-.56,1,0,1.36.48,1.36,1.36,0,1.44-.24,6.24-.24,13.76v8.08c0,7.44.4,7.84,4.56,8.08C1086,174.4,1086.08,174.88,1086.08,175.28Zm-4.24-43c0,2.16-1,4.48-4,4.48a3.63,3.63,0,0,1-3.84-3.92c0-2.08,1-4.32,4.08-4.32A3.41,3.41,0,0,1,1081.84,132.32Z"/><path class="cls-2" d="M1122,158.64c0,9.12-4.32,18.64-16.64,18.64-9,0-15.52-5.92-15.52-17,0-8.8,4.56-17.76,16.88-17.76C1115.68,142.48,1122,147.68,1122,158.64Zm-25-.08c0,7.84,1.52,16.32,9.36,16.32,7.36,0,8.56-8.88,8.56-14.4,0-7.84-1.36-15.68-9.2-15.68C1098.48,144.8,1097,153.28,1097,158.56Z"/><path class="cls-2" d="M1164.24,175.28c0,.48-.08,1.12-.4,1.12-1,0-6.08-.24-7.92-.24-2.32,0-6.8.24-7.76.24-.24,0-.32-.48-.32-1s.08-1,.32-1c4.48-.24,4.48-.88,4.64-8,.08-3.84.08-8.16.08-12.48,0-4.64-.72-7.52-5.68-7.52-4.4,0-7.52,3-9,5.52a4.89,4.89,0,0,0-.48,2.72v11.68c0,7.44.16,7.76,4.4,8.08.16,0,.24.48.24.88s-.08,1.12-.32,1.12c-.8,0-5.92-.24-7.6-.24-2.72,0-7,.24-8,.24-.32,0-.32-.48-.32-1s0-1,.32-1c4.4-.24,4.88-.64,4.88-8.08V151c0-5.12-1-5.52-5-5.52-.24,0-.32-.32-.32-.8s.08-1,.32-1c2.16-.24,8.4-.56,9.84-.56,1.2,0,1.6.48,1.6,1.2,0,.88-.16,2.8-.24,4.56l.32.08c3.28-4,7-6.48,11.84-6.48,5.12,0,9.52,2.72,9.52,8.88,0,5.28-.08,12.08-.08,16.08,0,6.4.8,6.64,4.72,7C1164.16,174.4,1164.24,174.88,1164.24,175.28Z"/><path class="cls-2" d="M1214.56,158.64c0,9.12-4.32,18.64-16.64,18.64-9,0-15.52-5.92-15.52-17,0-8.8,4.56-17.76,16.88-17.76C1208.24,142.48,1214.56,147.68,1214.56,158.64Zm-25-.08c0,7.84,1.52,16.32,9.36,16.32,7.36,0,8.56-8.88,8.56-14.4,0-7.84-1.36-15.68-9.2-15.68C1191,144.8,1189.52,153.28,1189.52,158.56Z"/><path class="cls-2" d="M1230.4,166.08c0,7.76.24,8,5.52,8.32.16,0,.24.48.24.88s-.08,1.12-.32,1.12c-1.2,0-6.8-.24-8.88-.24-2.48,0-6.8.24-7.68.24-.32,0-.4-.48-.4-1s.08-1,.4-1c4.32-.24,4.72-.72,4.72-8.32V146.8h-4.64c-.16,0-.4-.24-.4-1v-.48c0-1,.16-1.44.4-1.44H1224v-3.76c0-11,4.08-17.12,12.8-17.12,5.6,0,8.32,3,8.32,5.36a2.83,2.83,0,0,1-3,3,5.66,5.66,0,0,1-2.16-.4c-.32-3.76-2.08-5.52-4.32-5.52-5.2,0-5.2,5.6-5.2,11.76v6.72h7.68c.16,0,.24.24.24,1v.4c0,1.12-.08,1.52-.32,1.52h-7.6Z"/><path class="cls-2" d="M1254.48,129.44c-.24,0-.32-.48-.32-1s.08-1,.4-1c2.48,0,6.56.16,9.12.16,2.24,0,7.44-.24,9.44-.24,7.28,0,16.64.8,16.64,10.32,0,6.08-4.08,10.56-11,12.64v.4c9.28,1,13,6.24,13,11.84,0,6.48-3.84,13.84-18.88,13.84-2.64,0-7.76-.24-9.68-.24-2.32,0-6.32.24-8.64.24-.32,0-.4-.48-.4-1s.08-1,.4-1c5.28-.24,5.6-.64,5.6-8.24V137.68C1260.24,130.08,1260.08,129.76,1254.48,129.44Zm27.84,9.6c0-5.76-3-9.28-9.76-9.28-4.72,0-5.28.72-5.28,3V150H1270C1276.56,150,1282.32,148.56,1282.32,139Zm-15,30.32c0,4.16,1,4.48,5.84,4.48,7.2,0,10.88-3.44,10.88-10.4,0-8.8-6.4-11-14.32-11h-2.4Z"/><path class="cls-2" d="M1307,150.88c2.79-5.2,6-8.4,9.43-8.4a3.42,3.42,0,0,1,3.69,3.6,4.86,4.86,0,0,1-2.41,4.08,4.59,4.59,0,0,0-3.67-1.68c-5.12,0-7,5.12-7,10.32v7.44c0,7.76.15,7.92,5.2,8.16.23,0,.31.48.31.88s-.08,1.12-.39,1.12c-1.61,0-6.89-.24-8.41-.24-2.72,0-7,.24-8,.24-.32,0-.32-.48-.32-1s0-1,.32-1c4.4-.24,4.88-.64,4.88-8.08V151c0-5.12-1-5.52-5-5.52-.24,0-.32-.32-.32-.8s.08-1,.32-1c2.32-.24,8.08-.56,9.52-.56,1.2,0,1.6.48,1.6,1.2,0,.88-.08,3.6-.16,6.48Z"/><path class="cls-2" d="M1337.28,175.28c0,.48-.08,1.12-.4,1.12-.88,0-5.92-.24-7.76-.24-2.57,0-7,.24-7.92.24-.32,0-.32-.48-.32-1s0-1,.32-1c4.31-.24,4.8-.64,4.8-8.08V151c0-5.12-.88-5.52-4.73-5.52-.31,0-.39-.32-.39-.8s.08-1,.39-1c2.08-.24,8.32-.56,10-.56,1,0,1.35.48,1.35,1.36,0,1.44-.23,6.24-.23,13.76v8.08c0,7.44.39,7.84,4.56,8.08C1337.2,174.4,1337.28,174.88,1337.28,175.28Zm-4.24-43c0,2.16-1,4.48-4,4.48a3.63,3.63,0,0,1-3.84-3.92c0-2.08,1-4.32,4.08-4.32A3.42,3.42,0,0,1,1333,132.32Z"/><path class="cls-2" d="M1356,175.28c0,.48-.08,1.12-.32,1.12-1,0-6.24-.24-8.16-.24-2.48,0-6.8.24-7.84.24-.32,0-.4-.48-.4-1s.08-1,.4-1c4.32-.24,4.72-.72,4.72-8.32V131c0-5.2-.8-5.6-5.44-5.6-.16,0-.24-.4-.24-.88s.08-1,.24-1c2.48-.24,9-.64,10.72-.64,1.12,0,1.44.48,1.44,1.6,0,1.6-.32,10.48-.32,21.2v20.32c0,7.6.48,8,5,8.32C1355.91,174.4,1356,174.88,1356,175.28Z"/><path class="cls-2" d="M1374.39,175.28c0,.48-.08,1.12-.32,1.12-1,0-6.24-.24-8.16-.24-2.48,0-6.8.24-7.84.24-.32,0-.4-.48-.4-1s.08-1,.4-1c4.32-.24,4.72-.72,4.72-8.32V131c0-5.2-.8-5.6-5.44-5.6-.16,0-.24-.4-.24-.88s.08-1,.24-1c2.48-.24,9-.64,10.72-.64,1.12,0,1.44.48,1.44,1.6,0,1.6-.32,10.48-.32,21.2v20.32c0,7.6.48,8,5,8.32C1374.31,174.4,1374.39,174.88,1374.39,175.28Z"/><path class="cls-2" d="M1402.23,166.88c0,5.28,1.12,6.72,4.32,6.72,3.52,0,5.12-2.88,5.52-2.88s1.52,1,1.52,1.36c0,.24-2.48,5.2-9.28,5.2-6.24,0-8.56-3.2-8.56-8.56,0-5.6.24-16.08.4-21.92H1391c-.32,0-.4-.48-.4-1s0-.72.4-.88c6.4-2.72,8.08-7,9.68-11.44.08-.24.32-.32.64-.32.56,0,1.6.08,1.6.48s-.48,6.56-.48,10.16h9.6c.24,0,.32.24.32,1v.4c0,1.12-.08,1.52-.4,1.52h-9.52C1402.31,154.56,1402.23,162.72,1402.23,166.88Z"/><path class="cls-2" d="M1419,153.76c-2.88-7.68-3.28-8-7-8.32-.24,0-.32-.32-.32-.8s.08-1.12.4-1.12c1,0,5.68.16,7.6.16,2.32,0,6.56-.16,7.44-.16.32,0,.32.48.32,1s0,1-.32,1c-2.32.16-3.28.32-3.28,1.92a17.88,17.88,0,0,0,1.28,4.64l6.24,17.2h.08l6.48-17.12a13.46,13.46,0,0,0,1.28-4.72c0-1.6-1.12-1.76-4.08-1.92-.24,0-.24-.32-.24-.8s0-1.12.32-1.12c.72,0,4.72.16,6.08.16,2.16,0,5.6-.16,6.4-.16.24,0,.24.48.24,1s0,1-.24,1c-3.68.24-4,.8-7,8.32-4.08,10.32-6.08,15-8.16,20.32l-3.44,8.88c-3.36,8.56-6.16,13-10.8,13-3,0-4.56-1.92-4.56-4.08a5,5,0,0,1,1-3,8.26,8.26,0,0,0,4.32,1.28c4.16,0,5.84-4.24,9.6-13.76l-1.44-.16Z"/><path class="cls-2" d="M1459.19,185.2c0,7.44,0,7.68,5.2,8.08.16,0,.24.48.24.88s-.08,1.12-.32,1.12c-1,0-6.08-.24-7.76-.24-2.64,0-7.2.24-8.24.24-.32,0-.4-.48-.4-1s.08-1,.4-1c3.76-.32,4.48-.64,4.48-8.08V151c0-5.12-.88-5.52-4.88-5.52-.32,0-.4-.32-.4-.8s.08-1,.32-1c2.4-.24,8.56-.56,10-.56,1.2,0,1.44.48,1.44,1.2,0,.48,0,1.2-.08,2.72l.32.08c2.88-2.72,6-4.64,10.56-4.64,9.52,0,13.12,7.36,13.12,15.76,0,10.48-5.76,19-16.48,19a13.56,13.56,0,0,1-7.36-2l-.16.08Zm0-15.12c0,3,2.72,4.72,7.44,4.72,7.44,0,9.52-8.16,9.52-15,0-8.88-3.12-14-8.8-14-4.72,0-8.16,3.36-8.16,6.72Z"/><path class="cls-2" d="M1495.35,158.8c0,7,1.76,15.2,10.24,15.2,3.12,0,6.24-1.2,9-4.88.24-.32.32-.4.48-.4.48,0,1.92,1,1.92,1.6,0,.24-.08.32-.32.72a15.48,15.48,0,0,1-12.8,6.24c-9.6,0-15.44-6.4-15.44-16.8,0-11.36,6.64-18,15.92-18,5.44,0,12.8,2.24,12.8,15.12,0,.72-.08,1.2-1,1.2Zm.08-2.56h15c-.24-4.24-.72-11.44-6.88-11.44C1497.67,144.8,1495.83,150.8,1495.43,156.24Z"/><path class="cls-2" d="M1532.79,166.08c0,7.76.24,8,5.52,8.32.16,0,.24.48.24.88s-.08,1.12-.32,1.12c-1.2,0-6.8-.24-8.88-.24-2.48,0-6.8.24-7.68.24-.32,0-.4-.48-.4-1s.08-1,.4-1c4.32-.24,4.72-.72,4.72-8.32V146.8h-4.64c-.16,0-.4-.24-.4-1v-.48c0-1,.16-1.44.4-1.44h4.64v-3.76c0-11,4.08-17.12,12.8-17.12,5.6,0,8.32,3,8.32,5.36a2.83,2.83,0,0,1-3,3,5.66,5.66,0,0,1-2.16-.4c-.32-3.76-2.08-5.52-4.32-5.52-5.2,0-5.2,5.6-5.2,11.76v6.72h7.68c.16,0,.24.24.24,1v.4c0,1.12-.08,1.52-.32,1.52h-7.6Z"/><path class="cls-2" d="M1562,152.8c0-3.76-.88-7.84-5.92-7.84-3.92,0-5.76,1.92-5.76,4.64a8.78,8.78,0,0,0,.56,3,4.69,4.69,0,0,1-3.36,1.52,3,3,0,0,1-3.2-3.28c0-3.84,5.36-8.4,13-8.4,6.8,0,11,2.72,11,10.08,0,3.52-.16,8.16-.16,13.6,0,7.6.24,7.92,5,8.24.32,0,.4.64.4,1s-.08,1-.4,1-7.6.24-8.88.24-1.84-.32-1.92-1.52l-.24-3.28-.4-.08c-2.64,3.12-5.68,5.52-10.48,5.52-5,0-9.2-2.8-9.2-8.32,0-9.52,10.64-11,19.84-11.2C1562,156.24,1562,154.4,1562,152.8Zm-.08,7.2c-5.92,0-13,1.12-13,8.16,0,3.36,1.6,5.76,5,5.76a9,9,0,0,0,7.2-4.16c.64-.88.72-1.6.72-3.76C1561.83,165.28,1561.83,165,1561.91,160Z"/><path class="cls-2" d="M1598.71,150.72c0-3.28-1.36-5.76-5.68-5.76-6.88,0-9.44,7.36-9.44,14.24s2.24,14.72,10.24,14.72c3.76,0,6.32-1.76,8.56-5.2.24-.4.32-.48.56-.48.4,0,1.84.8,1.84,1.36a1.52,1.52,0,0,1-.24.72c-1.12,1.92-4.48,7-12.64,7-9.36,0-15.44-6.72-15.44-16.4,0-11.44,7.44-18.4,17.28-18.4,7.44,0,10.72,3.92,10.72,7.12,0,2.48-1.68,3.68-3.84,3.68a6.59,6.59,0,0,1-2.08-.32A11.74,11.74,0,0,0,1598.71,150.72Z"/><path class="cls-2" d="M1615.67,158.8c0,7,1.76,15.2,10.24,15.2,3.12,0,6.24-1.2,9-4.88.24-.32.32-.4.48-.4.48,0,1.92,1,1.92,1.6,0,.24-.08.32-.32.72a15.48,15.48,0,0,1-12.8,6.24c-9.6,0-15.44-6.4-15.44-16.8,0-11.36,6.64-18,15.92-18,5.44,0,12.8,2.24,12.8,15.12,0,.72-.08,1.2-1,1.2Zm.08-2.56h15c-.24-4.24-.72-11.44-6.88-11.44C1618,144.8,1616.15,150.8,1615.75,156.24Z"/><path class="cls-2" d="M1207.2,912.6c-.24,0-.32-.48-.32-1s.08-1.2.4-1.2c2.48,0,7.28.16,10,.16,2.32,0,7.44-.24,9.68-.24,7.76,0,17.44.8,17.44,10.32,0,6.08-4.32,10.4-11,12.64v.4c9.28,1,13,6.24,13,11.84,0,6.48-4.08,13.84-19.92,13.84-2.72,0-7.68-.24-9.68-.24-2.48,0-7.2.24-9.52.24-.32,0-.4-.64-.4-1.12s.08-1,.4-1c5.28-.24,5.6-.48,5.6-8.08V920.68C1213,913.08,1212.8,912.92,1207.2,912.6Zm27.44,9.44c0-5.76-2.72-9.12-8.64-9.12-3.28,0-3.68.56-3.68,2.8v17.2h2.32C1230.16,932.92,1234.64,930.84,1234.64,922Zm-12.32,30.32c0,4.16.8,4.32,4.4,4.32,6.32,0,9.52-3.28,9.52-10.24,0-8.8-5.28-10.88-11.84-10.88h-2.08Z"/><path class="cls-2" d="M1285.92,941.64c0,9.12-4.56,18.64-17.6,18.64-9.6,0-16.48-5.92-16.48-17,0-8.8,4.8-17.76,17.84-17.76C1279.2,925.48,1285.92,930.68,1285.92,941.64Zm-24.56-.08c0,7.76,1.28,16.16,7.92,16.16,6.08,0,7-8.8,7-14.24,0-7.76-1.12-15.52-7.68-15.52C1262.64,928,1261.36,936.36,1261.36,941.56Z"/><path class="cls-2" d="M1308.88,958.12c0,.48-.08,1.28-.32,1.28-1,0-6.72-.24-9.36-.24-3.44,0-8,.24-9,.24-.32,0-.4-.64-.4-1.12s.08-1,.4-1c4.32-.24,4.72-.56,4.72-8.16V914c0-5.2-.8-5.36-5.44-5.36-.16,0-.24-.4-.24-.88s.08-1.2.24-1.2c2.48-.24,10.4-.64,12.72-.64,1.52,0,1.84.48,1.84,1.6,0,1.6-.32,10.48-.32,21.2v20.32c0,7.6.48,7.84,5,8.16C1308.8,957.24,1308.88,957.72,1308.88,958.12Z"/><path class="cls-2" d="M1336.08,914c0-5.2-.8-5.36-5.44-5.36-.24,0-.32-.4-.32-.88s.08-1.2.32-1.2c2.48-.24,10.32-.64,12.64-.64,1.36,0,1.84.48,1.84,1.6,0,1.6-.24,11.28-.24,22v19.52c0,7.6.32,7.84,5,8.16.32,0,.4.56.4,1s-.08,1.12-.4,1.12c-1.76.08-8.4.32-10.64.32-1.52,0-2.48-.24-2.64-1.76l-.24-2.24-.32-.08a11.86,11.86,0,0,1-9.6,4.72c-9.6,0-14-7.6-14-16.24,0-11,5.76-18.56,17.28-18.56a13.14,13.14,0,0,1,6.08,1.36l.24-.08Zm0,18.64c0-1.52,0-2.8-1-3.44a9.05,9.05,0,0,0-4.64-1.2c-6.72,0-8.48,7.36-8.48,14.64,0,8.8,2.24,14.16,7.2,14.16,3.52,0,7-2.88,7-6.24Z"/><path class="cls-2" d="M293.78,457.19c-11.9,12.25-24.5,18.9-43.4,18.9-33.95,0-68.25-42.71-102.2-42.71-13.65,0-23.8,4.2-33.25,12.95-2.1-.7-4.91-4.2-4.91-6.29,15.41-18.91,29.41-29.41,53.21-29.41,34,0,68.25,42.7,102.2,42.7,15.4,0,23.8-3.5,31.5-11.9,5.25-6.64,13.65-12.95,18.2-12.95,7.35,0,23.1,15.76,23.1,23.1s-15.75,23.11-23.1,23.11C309.18,474.69,298.33,464.89,293.78,457.19Zm-102.55,52.5c27,0,54.25,19.25,81.2,19.25,15.05,0,22.75-4.2,29.75-9.8,4.55-4.2,9.8-7.35,12.95-7.35,7.35,0,23.1,15.75,23.1,23.1S322.48,558,315.13,558c-7,0-21.35-14-23.1-21.7C282.58,546.44,272.08,552,257,552c-26.95,0-54.25-17.85-81.2-17.85-16.45,0-24.85,2.8-32.9,9.1-2.1-.7-4.9-4.2-4.9-6.3C153.08,519.49,167.43,509.69,191.23,509.69Z"/><path class="cls-2" d="M467.73,436.54c-3.5,0-9.1,2.09-14,4.2-1.05-.36-3.15-4.91-3.15-7l.35-.69c16.8-8.41,36.4-14,43.4-14,4.2,0,5.95,2.1,5.95,11.2V536.64c0,15.05-.7,16.1-13.3,20.65l-29.05,10.15c-1.05-.35-3.15-5.6-3.15-7.35,17.15-8.05,17.5-9.45,17.5-41V453.33C472.28,439,471.58,436.54,467.73,436.54Z"/><path class="cls-2" d="M448.83,359.18c5.6,0,17.5,11.9,17.5,17.5s-11.9,17.5-17.5,17.5-17.51-11.9-17.51-17.5S443.23,359.18,448.83,359.18Zm13.65-14c0-5.6,11.9-17.5,17.5-17.5s17.5,11.9,17.5,17.5-11.9,17.5-17.5,17.5S462.48,350.78,462.48,345.18Zm48.65,14c5.6,0,17.5,11.9,17.5,17.5s-11.9,17.5-17.5,17.5-17.5-11.9-17.5-17.5S505.53,359.18,511.13,359.18Z"/><path class="cls-2" d="M546.12,548.54c0-42.35,23.81-73.85,74.21-99.41v-1.39h-30.8c-27.3,0-33.95,2.09-43.41,7.34-1.74-.34-3.85-4.54-3.85-5.95l.35-1.05c19.61-17.15,36.06-24.85,56-24.85H700.48c27.3,0,33.95-2.1,43.4-7.35,1.75.35,3.85,4.55,3.85,5.95l-.35,1.05c-19.6,17.16-36,24.86-56,24.86h-48.3c-49.7,26.95-69.65,55.3-69.65,91,0,43.4,29.4,72.1,73.15,72.1,43.4,0,68.6-24.5,68.6-56,0-12.25-4.2-21-14.7-31.15,3.5-7,12.25-13,21.7-13,13.3,0,21.35,8.75,21.35,28,0,39.9-50.4,89.25-114.45,89.25C576.23,628,546.12,593.69,546.12,548.54Z"/><path class="cls-2" d="M872.68,439.33c0,14.36-12.25,20-21.35,20a11.91,11.91,0,0,1-3.5-.35c-3.15-11.2-9.1-21.36-20.3-21.36-16.8,0-30.45,19.61-30.45,48.66,0,35.35,19.25,55,47.25,55,24.15,0,41.3-11.55,60.2-35.7V449.83c0-15,.7-16.1,13.3-20.65l29-10.15c1,.35,3.15,5.6,3.15,7.35-17.15,8.05-17.5,9.45-17.5,40.95V639.89c0,15.05-.35,16.45-13.3,20.65l-36.05,11.9c-1-.35-3.15-5.6-3.15-7.35,24.15-10.5,24.5-11.9,24.5-49.7v-91.7l-1.75-.35c-16.45,26.25-42,43.4-70.7,43.4-35.7,0-62.3-24.5-62.3-63,0-47.95,41.3-84,79.8-84C865.68,419.73,872.68,428.13,872.68,439.33Z"/><path class="cls-2" d="M827.18,359.18c5.6,0,17.5,11.9,17.5,17.5s-11.9,17.5-17.5,17.5-17.51-11.9-17.51-17.5S821.58,359.18,827.18,359.18Zm13.65-14c0-5.6,11.9-17.5,17.5-17.5s17.5,11.9,17.5,17.5-11.9,17.5-17.5,17.5S840.83,350.78,840.83,345.18Zm48.65,14c5.6,0,17.5,11.9,17.5,17.5s-11.9,17.5-17.5,17.5-17.5-11.9-17.5-17.5S883.88,359.18,889.48,359.18Z"/><path class="cls-2" d="M987.83,632.54c0-23.8,23.8-47.6,49.7-72.45-11.2-37.45-26.25-76-37.45-98C991,444.24,985,439,979.07,439c-4.19,0-8.75,2.44-15.05,8.39-1.4,0-5.25-4.55-5.25-5.95,13.3-14.7,28-23.1,38.51-23.1,10.85,0,18.9,6.65,30.1,31.86,9.8,22.05,21,54.95,31.15,89.25,24.15-24.15,44.8-50.05,44.8-78.75,0-17.86-8.4-25.56-21-25.56-6.65,0-14.7,2.8-21.7,8.41-1.4-.36-4.55-5.61-4.55-7,10.85-10.16,26.25-18.21,42.7-18.21,22.75,0,32.55,14.35,32.55,34.3,0,62.31-115.5,109.91-115.5,170.11,0,18.55,8.4,27.65,26.95,27.65,9.8,0,19.25-3.15,28-9.1,1.4,0,4.55,4.55,4.55,6-14,14.35-29.75,23.45-49,23.45C1000.43,670.69,987.83,657,987.83,632.54Z"/><path class="cls-2" d="M1033,373.18c0-6.3,13.65-19.95,20-19.95s20,13.65,20,19.95-13.65,19.95-20,19.95S1033,379.48,1033,373.18Z"/><path class="cls-2" d="M1173.33,436.54c-3.51,0-9.1,2.09-14,4.2-1-.36-3.14-4.91-3.14-7l.34-.69c16.81-8.41,36.41-14,43.41-14,4.2,0,6,2.1,6,11.2v32.56l1.75.35c16.45-26.26,42-43.41,70.7-43.41,27.3,0,49.35,14.35,58.1,38.51,16.45-23.45,40.6-38.51,67.55-38.51,35.7,0,62.3,24.51,62.3,63,0,48-41.3,84-79.8,84-16.1,0-23.1-8.4-23.1-19.6,0-14.35,12.25-19.95,21.35-19.95a11.91,11.91,0,0,1,3.5.35c3.15,11.2,9.1,21.35,20.3,21.35,16.8,0,30.45-19.6,30.45-48.65,0-35.35-19.25-54.95-47.25-54.95-20.65,0-36,8.4-51.8,25.9.35,3.85.7,7.7.7,11.55,0,48-41.3,84-79.8,84-16.1,0-23.1-8.4-23.1-19.6,0-14.35,12.25-19.95,21.35-19.95a11.91,11.91,0,0,1,3.5.35c3.15,11.2,9.1,21.35,20.3,21.35,16.8,0,30.45-19.6,30.45-48.65,0-35.35-19.25-54.95-47.25-54.95-24.15,0-41.3,11.54-60.2,35.7v55.65c0,15.05-.7,16.1-13.3,20.65l-29.06,10.15c-1-.35-3.14-5.6-3.14-7.35,17.14-8.05,17.5-9.45,17.5-41V453.33C1177.88,439,1177.18,436.54,1173.33,436.54Z"/><path class="cls-2" d="M1581.78,451.58c0-7.34,15.75-23.1,23.1-23.1,6.3,0,19.25,11.9,22.4,19.95,11.9-11.2,24.85-17.5,43-17.5,23.1,0,46.2,12.61,69.3,12.61,22.4,0,39.55-11.56,64.4-37.11,2.45.35,5.6,3.85,6,5.95-27.65,35.36-51.1,55.66-85.75,55.66-23.1,0-46.2-14-69.3-14-16.8,0-25.9,3.15-34.3,10.5-5.25,5.6-11.55,10.15-15.75,10.15C1597.53,474.69,1581.78,458.94,1581.78,451.58Zm23.1,60.21c5.6,0,16.8,9.8,21,17.5,12.25-13.3,24.85-20.65,44.1-20.65,25.55,0,50.75,19.6,76.3,19.6,16.45,0,24.85-2.8,32.9-9.1,2.1.7,4.9,4.2,4.9,6.3-15,17.5-29.4,27.3-53.2,27.3-25.55,0-50.75-21-76.3-21-15.4,0-23.1,3.85-30.8,12.25-5.25,7-14,14-18.9,14-7.35,0-23.1-15.75-23.1-23.1S1597.53,511.79,1604.88,511.79Z"/></svg>