<?xml version="1.0" encoding="UTF-8"?>
<svg width="597.0" height="1124.0" viewBox="0 0 597.0 1124.0" version="1.1" xmlns="http://www.w3.org/2000/svg" xmlns:xlink="http://www.w3.org/1999/xlink">
 <path d="M98,314 l0,-114 l80,0 l0,180 c0,26,-5,32,-17,32 c-20,0,-76,-16,-124,-40 l-1,-2 c0,-6,6,-19,9,-20 c14,6,30,12,40,12 c11,0,13,-7,13,-48 Z M37,-312 l103,34 c37,12,38,16,38,59 l0,419 l-80,0 l0,-349 c0,-108,-1,-112,-70,-142 c0,-5,6,-20,9,-21 Z M98,0 l356,0 c28,0,35,7,35,35 c0,20,-3,30,-15,33 c55,41,89,98,89,162 c0,110,-76,180,-178,180 c-82,0,-155,-49,-202,-124 l-11,2 l0,-17 l4,0 l0,-39 c55,71,104,105,174,105 c80,0,135,-52,135,-147 c0,-56,-18,-96,-51,-120 l-336,0 Z M454,0 l10,0 c57,0,104,22,160,71 l1,3 c0,4,-6,16,-11,17 c-27,-15,-46,-21,-124,-21 l-36,0 c-28,0,-35,-7,-35,-35 c0,-28,7,-35,35,-35 Z M454,0" fill="rgb(0,0,0)" transform="matrix(1,0,0,-1,-28.0,760.0)"/>
</svg>