<?xml version="1.0" encoding="UTF-8"?>
<svg width="926.0" height="1124.0" viewBox="0 0 926.0 1124.0" version="1.1" xmlns="http://www.w3.org/2000/svg" xmlns:xlink="http://www.w3.org/1999/xlink">
 <path d="M135,330 l44,0 c28,0,35,7,35,35 c0,28,-7,35,-35,35 l-2,0 c-53,0,-64,3,-78,12 c-50,-24,-69,-41,-69,-58 c0,-20,16,-24,105,-24 Z M535,400 l-356,0.0 c-28,0,-35,-7,-35,-35 c0,-20,3,-30,15,-33 c-55,-41,-89,-98,-89,-162 c-0.0,-110,76.0,-180,178.0,-180.0 c82,0,155,49,202,124 l11,-2 l0,17 l-4,0 l0.0,39 c-55.0,-71,-104.0,-105,-174,-105 c-80.0,0.0,-135.0,52.0,-135,147.0 c0,56.0,18,96.0,51,120.0 l336,0 Z M894,400 l-356,0.0 c-28,0,-35,-7,-35,-35 c0,-20,3,-30,15,-33 c-55,-41,-89,-98,-89,-162 c-0.0,-110,76.0,-180,178,-180.0 c82,0,155,49,202,124 l11,-2 l0,17 l-4,0 l0,39 c-55,-71,-104,-105,-174,-105 c-80,0.0,-135.0,52.0,-135,147.0 c0,56.0,18,96.0,51,120.0 l336,0 Z M814,400 l0,-90 l70,40 l51,62 c-30,-9,-59,-12,-121,-12 Z M814,324 l0,-124 l80,0 l0,74 c0,90,1,94,50,117 c0,5,-6,20,-9,21 l-83,-29 c-36,-13,-38,-16,-38,-59 Z M831,-12 c20,0,76,16,124,40 l1,2 c0,6,-7,18,-10,19 c-14,-6,-29,-11,-39,-11 c-11,0,-13,7,-13,48 l0,114 l-80,0 l0,-180 c0,-26,5,-32,17,-32 Z M831,-12" fill="rgb(0,0,0)" transform="matrix(1,0,0,-1,-30.0,760.0)"/>
</svg>