<?xml version="1.0" encoding="UTF-8"?>
<svg width="527.0" height="1124.0" viewBox="0 0 527.0 1124.0" version="1.1" xmlns="http://www.w3.org/2000/svg" xmlns:xlink="http://www.w3.org/1999/xlink">
 <path d="M103,314 l0,-114 l80,0 l0,180 c0,26,-5,32,-17,32 c-20,0,-76,-16,-124,-40 l-1,-2 c0,-6,6,-19,9,-20 c14,6,30,12,40,12 c11,0,13,-7,13,-48 Z M62,-12 l83,29 c36,13,38,16,38,59 l0,124 l-80,0 l0,-74 c0,-90,-1,-94,-50,-117 c0,-5,6,-20,9,-21 Z M340,-10 c110,0,228,103,228,240 c0,110,-76,180,-178,180 c-82,0,-155,-49,-202,-124 l-11,2 l0,-17 l4,0 l0,-39 c55,71,104,105,174,105 c80,0,135,-56,135,-157 c0,-83,-39,-139,-87,-139 c-32,0,-49,29,-58,61 c-3,1,-7,1,-10,1 c-26,0,-61,-16,-61,-57 c0,-32,20,-56,66,-56 Z M340,-10" fill="rgb(0,0,0)" transform="matrix(1,0,0,-1,-41.0,760.0)"/>
</svg>