<?xml version="1.0" encoding="UTF-8"?>
<svg width="557.0" height="1124.0" viewBox="0 0 557.0 1124.0" version="1.1" xmlns="http://www.w3.org/2000/svg" xmlns:xlink="http://www.w3.org/1999/xlink">
 <path d="M256,-217 c155,0,304,100,304,202 c0,55,-34,83,-128,83 l-177,0 c-96,0,-126,32,-126,92 c0,62,45,115,159,170 l148,0 c57,0,104,22,160,71 l1,3 c0,4,-6,16,-11,17 c-27,-15,-46,-21,-124,-21 l-261,0 c-57,0,-104,-22,-160,-71 l-1,-3 c0,-4,6,-16,11,-17 c27,15,46,21,124,21 l47,0 l0,-4 c-106,-51,-171,-114,-171,-194 c0,-82,47,-134,179,-134 l177,0 c56,0,75,-20,75,-56 c0,-65,-69,-110,-156,-110 c-61,0,-83,21,-96,86 c-4,1,-8,1,-10,1 c-34,0,-71,-19,-71,-62 c0,-41,33,-74,107,-74 Z M256,-217" fill="rgb(0,0,0)" transform="matrix(1,0,0,-1,-40.0,760.0)"/>
</svg>