<?xml version="1.0" encoding="UTF-8"?>
<svg width="429.0" height="1124.0" viewBox="0 0 429.0 1124.0" version="1.1" xmlns="http://www.w3.org/2000/svg" xmlns:xlink="http://www.w3.org/1999/xlink">
 <path d="M210,-12 c143,0,248,111,248,219 c0,65,-31,114,-83,114 c-34,0,-57,-23,-65,-48 c48,-28,74,-63,74,-116 c0,-74,-43,-118,-115,-118 c-90,0,-141,62,-141,153 c0,106,72,198,351,417 c0,5,-14,25,-19,26 c-335,-248,-410,-330,-410,-473 c0,-99,56,-174,160,-174 Z M210,-12" fill="rgb(0,0,0)" transform="matrix(1,0,0,-1,-50.0,760.0)"/>
</svg>