<?xml version="1.0" encoding="UTF-8"?>
<svg width="429.00000000000006" height="1124.0" viewBox="0 0 429.00000000000006 1124.0" version="1.1" xmlns="http://www.w3.org/2000/svg" xmlns:xlink="http://www.w3.org/1999/xlink">
 <path d="M298,412 c-143,0.0,-248,-111.0,-248,-219.0 c-0.0,-65,31.0,-114,83.0,-114 c34,0,57,23,65,48 c-48,28,-74.0,63,-74.0,116 c0,74,43,118,115,118 c90,-0.0,141,-62.0,141,-153.0 c0,-106.0,-72.0,-198.0,-351.0,-417.0 c0,-5,14,-25,19,-26.0 c335,248,410,330,410.0,473 c0,99,-56,174,-160,174 Z M298,412" fill="rgb(0,0,0)" transform="matrix(1,0,0,-1,-28.999999999999943,760.0)"/>
</svg>