<?xml version="1.0" encoding="UTF-8"?>
<svg width="406.0" height="1124.0" viewBox="0 0 406.0 1124.0" version="1.1" xmlns="http://www.w3.org/2000/svg" xmlns:xlink="http://www.w3.org/1999/xlink">
 <path d="M209,102 c82,0,131,43,171,106 c-1,5,-14,14,-19,14 c-26,-39,-66,-63,-108,-63 c-69,0,-94,42,-94,103 c0,86,58,161,260,329 c0,5,-9,17,-14,18 c-224,-159,-324,-254,-324,-373 c0,-49,19,-91,55,-114 c-78,-49,-111,-103,-111,-170 c0,-87,59,-154,168,-154 c137,0,238,101,238,200 c0,43,-20,77,-53,77 c-34,0,-56,-22,-65,-45 c27,-22,43,-51,43,-87 c0,-60,-41,-95,-111,-95 c-90,0,-142,58,-142,144 c0,51,17,84,58,118 c14,-5,30,-8,48,-8 Z M209,102" fill="rgb(0,0,0)" transform="matrix(1,0,0,-1,-25.0,760.0)"/>
</svg>