<?xml version="1.0" encoding="UTF-8"?>
<svg width="396.0" height="1124.0" viewBox="0 0 396.0 1124.0" version="1.1" xmlns="http://www.w3.org/2000/svg" xmlns:xlink="http://www.w3.org/1999/xlink">
 <path d="M106,-312 c195,99,319,200,319,335 c0,63,-38,113,-108,124 c65,38,93,80,93,131 c0,77,-56,134,-159,134 c-125,0,-222,-103,-222,-196 c0,-37,20,-67,53,-67 c30,0,50,20,57,40 c-27,19,-43,46,-43,77 c0,56,37,95,116,95 c76,0,120,-41,120,-103 c0,-45,-18,-75,-58,-110 c-61,-5,-109,-45,-147,-98 c1,-5,13,-15,18,-15 c31,35,67,56,105,56 c64,0,100,-36,100,-98 c0,-102,-80,-186,-256,-285 c0,-5,8,-19,12,-20 Z M106,-312" fill="rgb(0,0,0)" transform="matrix(1,0,0,-1,-29.0,760.0)"/>
</svg>