<?xml version="1.0" encoding="UTF-8"?>
<svg width="538.0" height="1124.0" viewBox="0 0 538.0 1124.0" version="1.1" xmlns="http://www.w3.org/2000/svg" xmlns:xlink="http://www.w3.org/1999/xlink">
 <path d="M444,-12 c31,0,70,22,109,62 c0,5,-11,19,-15,19 c-21,-17,-35,-23,-49,-23 c-17,0,-32,14,-71,95 c-63,132,-142,371,-190,480 c-32,72,-51,91,-87,91 c-31,0,-74,-27,-113,-75 c0,-4,11,-17,15,-17 c22,23,39,33,54,33 c16,0,33,-16,58,-69 c34,-72,74,-176,115,-281 c-37,-71,-70,-127,-98,-169 c-20,-28,-41,-40,-62,-40 c-15,0,-32,9,-50,25 c-27,-17,-45,-44,-45,-70 c0,-39,22,-61,55,-61 c37,0,67,18,107,85 c33,55,74,130,107,196 c26,-67,53,-133,78,-190 c32,-72,51,-91,82,-91 Z M444,-12" fill="rgb(0,0,0)" transform="matrix(1,0,0,-1,-15.0,760.0)"/>
</svg>