<?xml version="1.0" encoding="UTF-8"?>
<svg width="534.0" height="1124.0" viewBox="0 0 534.0 1124.0" version="1.1" xmlns="http://www.w3.org/2000/svg" xmlns:xlink="http://www.w3.org/1999/xlink">
 <path d="M440,-12 c31,0,70,22,109,62 c0,5,-11,19,-15,19 c-21,-17,-35,-23,-49,-23 c-15,0,-26,9,-50,54 c-36,65,-70,161,-97,221 c-32,72,-51,91,-87,91 c-32,0,-75,-26,-115,-73 c0,-4,11,-17,15,-17 c23,22,40,31,56,31 c16,0,31,-16,58,-69 c1,-1,2,-3,2,-5 c-34,-60,-64,-108,-91,-145 c-21,-29,-44,-40,-66,-40 c-15,0,-32,9,-50,25 c-27,-17,-45,-44,-45,-70 c0,-39,22,-61,55,-61 c38,0,69,19,111,84 c32,50,69,115,101,176 c23,-50,54,-125,75,-169 c34,-71,52,-91,83,-91 Z M440,-12" fill="rgb(0,0,0)" transform="matrix(1,0,0,-1,-15.0,760.0)"/>
</svg>