<?xml version="1.0" encoding="UTF-8"?>
<svg width="150.0" height="1124.0" viewBox="0 0 150.0 1124.0" version="1.1" xmlns="http://www.w3.org/2000/svg" xmlns:xlink="http://www.w3.org/1999/xlink">
 <path d="M98,314 l0,-114 l80,0 l0,180 c0,26,-5,32,-17,32 c-20,0,-76,-16,-124,-40 l-1,-2 c0,-6,6,-19,9,-20 c14,6,30,12,40,12 c11,0,13,-7,13,-48 Z M37,-312 l103,34 c37,12,38,16,38,59 l0,419 l-80,0 l0,-349 c0,-108,-1,-112,-70,-142 c0,-5,6,-20,9,-21 Z M37,-312" fill="rgb(0,0,0)" transform="matrix(1,0,0,-1,-28.0,760.0)"/>
</svg>