<?xml version="1.0" encoding="UTF-8"?>
<svg width="410.0" height="1124.0" viewBox="0 0 410.0 1124.0" version="1.1" xmlns="http://www.w3.org/2000/svg" xmlns:xlink="http://www.w3.org/1999/xlink">
 <path d="M162,-10 c124,0,258,103,258,240 c0,110,-76,180,-178,180 c-88,0,-162,-43,-232,-134 c0,-4,13,-17,17,-17 c52,55,97,82,164,82 c90,0,151,-57,151,-163 c0,-84,-56,-140,-127,-140 c-46,0,-70,40,-83,84 c-3,1,-7,1,-10,1 c-26,0,-61,-16,-61,-57 c0,-44,31,-76,101,-76 Z M162,-10" fill="rgb(0,0,0)" transform="matrix(1,0,0,-1,-10.0,760.0)"/>
</svg>