<?xml version="1.0" encoding="UTF-8"?>
<svg width="409.99999999999994" height="1124.0" viewBox="0 0 409.99999999999994 1124.0" version="1.1" xmlns="http://www.w3.org/2000/svg" xmlns:xlink="http://www.w3.org/1999/xlink">
 <path d="M308,410 c-124,0.0,-258,-103.0,-258,-240.0 c-0.0,-110,76.0,-180,178.0,-180 c88,-0.0,162,43.0,232,134.0 c0,4,-13,17,-17,17 c-52,-55,-97,-82,-164.0,-82 c-90.0,0.0,-151.0,57.0,-151,163.0 c0,84.0,56,140.0,127,140.0 c46,0,70,-40,83,-84 c3,-1,7,-1,10,-1 c26,0,61,16,61,57 c0,44,-31,76,-101,76 Z M308,410" fill="rgb(0,0,0)" transform="matrix(1,0,0,-1,-50.0,760.0)"/>
</svg>