<?xml version="1.0" encoding="UTF-8"?>
<svg width="502.0" height="1124.0" viewBox="0 0 502.0 1124.0" version="1.1" xmlns="http://www.w3.org/2000/svg" xmlns:xlink="http://www.w3.org/1999/xlink">
 <path d="M371,-312 l103,34 c37,12,38,16,38,59 l0,443 c0,105,-62,186,-174,186 c-125,0,-261,-106,-261,-238 c0,-42,16,-80,47,-108 c-38,-9,-73,-30,-113,-65 l-1,-3 c0,-4,6,-16,11,-17 c27,15,46,21,124,21 l287,0 l0,-149 c0,-108,-1,-112,-70,-142 c0,-5,6,-20,9,-21 Z M155,220 c0,90,52,140,134,140 c85,0,143,-69,143,-174 l0,-116 l-125,0 c-95,0,-152,60,-152,150 Z M155,220" fill="rgb(0,0,0)" transform="matrix(1,0,0,-1,-10.0,760.0)"/>
</svg>