<?xml version="1.0" encoding="UTF-8"?>
<svg width="583.0" height="1124.0" viewBox="0 0 583.0 1124.0" version="1.1" xmlns="http://www.w3.org/2000/svg" xmlns:xlink="http://www.w3.org/1999/xlink">
 <path d="M103,314 l0,-114 l80,0 l0,180 c0,26,-5,32,-17,32 c-20,0,-76,-16,-124,-40 l-1,-2 c0,-6,6,-19,9,-20 c14,6,30,12,40,12 c11,0,13,-7,13,-48 Z M62,-12 c30,9,59,12,121,12 l0,90 l-70,-40 Z M62,-12 l83,29 c36,13,38,16,38,59 l0,124 l-80,0 l0,-74 c0,-90,-1,-94,-50,-117 c0,-5,6,-20,9,-21 Z M103,0 l356,0 c28,0,35,7,35,35 c0,20,-3,30,-15,33 c55,41,89,98,89,162 c0,110,-76,180,-178,180 c-82,0,-155,-49,-202,-124 l-11,2 l0,-17 l4,0 l0,-39 c55,71,104,105,174,105 c80,0,135,-52,135,-147 c0,-56,-18,-96,-51,-120 l-336,0 Z M397,-197 c116,0,227,91,227,184 c0,55,-30,83,-114,83 l-51,0 c-28,0,-35,-7,-35,-35 c0,-28,7,-35,35,-35 l1,0 c84,0,98,-14,98,-55 c0,-54,-44,-89,-96,-89 c-32,0,-46,19,-55,67 c-3,1,-7,1,-10,1 c-35,0,-73,-22,-73,-64 c0,-32,22,-57,73,-57 Z M397,-197" fill="rgb(0,0,0)" transform="matrix(1,0,0,-1,-41.0,760.0)"/>
</svg>