<?xml version="1.0" encoding="UTF-8"?>
<svg width="569.0" height="1124.0" viewBox="0 0 569.0 1124.0" version="1.1" xmlns="http://www.w3.org/2000/svg" xmlns:xlink="http://www.w3.org/1999/xlink">
 <path d="M222,0 l236,0 c57,0,104,22,160,71 l1,3 c0,4,-6,16,-11,17 c-27,-15,-46,-21,-124,-21 l-88,0 c45,42,74,101,74,169 c0,96,-60,171,-172,171 c-128,0,-248,-100,-248,-239 c0,-96,60,-171,172,-171 Z M125,222 c0,91,47,141,121,141 c87,0,149,-71,149,-175 c0,-91,-47,-141,-121,-141 c-87,0,-149,70,-149,175 Z M125,222" fill="rgb(0,0,0)" transform="matrix(1,0,0,-1,-50.0,760.0)"/>
</svg>