<?xml version="1.0" encoding="UTF-8"?>
<svg width="278.0" height="1124.0" viewBox="0 0 278.0 1124.0" version="1.1" xmlns="http://www.w3.org/2000/svg" xmlns:xlink="http://www.w3.org/1999/xlink">
 <path d="M159.0,-157 c-16,0,-50.0,-34,-50.0,-50 c0,-16,34,-50,50,-50 c16,0,50,34,50.0,50 c0,16,-34,50,-50,50 Z M298.0,-117 c0,16,-34,50,-50,50 c-16,0,-50,-34,-50,-50 c0,-16,34,-50,50,-50 c16,0,50,34,50,50 Z M120.0,-117 c0,16,-34,50,-50,50.0 c-16,0,-50,-34.0,-50,-50.0 c0,-16,34,-50,50.0,-50 c16,0,50.0,34,50.0,50 Z M120.0,-117" fill="rgb(0,0,0)" transform="matrix(1,0,0,-1,-19.999999999999943,760.0)"/>
</svg>