<?xml version="1.0" encoding="UTF-8"?>
<svg width="278.0" height="1124.0" viewBox="0 0 278.0 1124.0" version="1.1" xmlns="http://www.w3.org/2000/svg" xmlns:xlink="http://www.w3.org/1999/xlink">
 <path d="M248,548 c16,0,50,34,50,50 c0,16,-34,50,-50,50 c-16,0,-50,-34,-50,-50 c0,-16,34,-50,50,-50 Z M20,598 c0,-16,34,-50,50,-50 c16,0,50,34,50,50 c0,16,-34,50,-50,50 c-16,0,-50,-34,-50,-50 Z M109,508 c0,-16,34,-50,50,-50 c16,0,50,34,50,50 c0,16,-34,50,-50,50 c-16,0,-50,-34,-50,-50 Z M109,508" fill="rgb(0,0,0)" transform="matrix(1,0,0,-1,-20.0,760.0)"/>
</svg>