<?xml version="1.0" encoding="UTF-8"?>
<svg width="573.0" height="1124.0" viewBox="0 0 573.0 1124.0" version="1.1" xmlns="http://www.w3.org/2000/svg" xmlns:xlink="http://www.w3.org/1999/xlink">
 <path d="M144,-223 c88,0,114,85,142,226 l0,2 c160,22,252,105,252,172 c0,41,-29,71,-85,71 c-88,0,-147,-65,-181,-178 l-272,0 c-28,0,-35,-7,-35,-35 c0,-28,7,-35,35,-35 l206,0 c17,0,33,1,49,2 c-20,-96,-42,-131,-101,-131 c-19,0,-38,8,-48,21 c-16,-9,-25,-30,-25,-54 c0,-40,21,-61,63,-61 Z M304,70 c25,74,63,106,118,106 c35,0,52,-16,52,-39 c0,-40,-35,-65,-170,-67 Z M304,70" fill="rgb(0,0,0)" transform="matrix(1,0,0,-1,35.0,760.0)"/>
</svg>