<?xml version="1.0" encoding="UTF-8"?>
<svg width="287.0" height="1124.0" viewBox="0 0 287.0 1124.0" version="1.1" xmlns="http://www.w3.org/2000/svg" xmlns:xlink="http://www.w3.org/1999/xlink">
 <path d="M-57,-109 c0,38,-18,63,-47,63 c-42,0,-64,-38,-64,-73 c0,-3,0,-7,1,-10 c34,-10,47,-24,47,-45 c0,-30,-32,-56,-82,-56 c-54,0,-72,25,-72,108 l0,168 c0,13,-15,25,-35,25 c-20,0,-35,-12,-35,-25 l0,-218 c0,-84,35,-124,103,-124 c93,0,184,112,184,187 Z M-57,-109" fill="rgb(0,0,0)" transform="matrix(1,0,0,-1,344.0,760.0)"/>
</svg>