<?xml version="1.0" encoding="UTF-8"?>
<svg width="368.0" height="1124.0" viewBox="0 0 368.0 1124.0" version="1.1" xmlns="http://www.w3.org/2000/svg" xmlns:xlink="http://www.w3.org/1999/xlink">
 <path d="M183,592 c-20,0,-76,-16,-124,-40 l-1,-2 c0,-6,6,-19,9,-20 c14,6,30,12,40,12 c11,0,13,-7,13,-48 l0,-443 c0,-173,-14,-210,-70,-242 c0,-5,6,-20,9,-21 c82,30,138,68,141,217 c135,64,218,137,218,214 c0,51,-31,90,-89,94 c59,33,84,70,84,113 c0,53,-36,92,-103,92 c-42,0,-79,-15,-110,-47 l0,89 c0,26,-5,32,-17,32 Z M200,37 l0,185 c27,22,56,33,81,33 c39,0,62,-22,62,-60 c0,-52,-45,-104,-143,-158 Z M200,255 l0,182 c22,19,45,30,72,30 c40,0,63,-25,63,-61 c0,-33,-19,-67,-58,-99 c-26,-9,-51,-26,-77,-52 Z M200,255" fill="rgb(0,0,0)" transform="matrix(1,0,0,-1,-50.0,760.0)"/>
</svg>