<?xml version="1.0" encoding="UTF-8"?>
<svg width="277.0" height="1124.0" viewBox="0 0 277.0 1124.0" version="1.1" xmlns="http://www.w3.org/2000/svg" xmlns:xlink="http://www.w3.org/1999/xlink">
 <path d="M177,612 c-19,0,-72,-15,-118,-37 l-1,-2 c0,-6,6,-19,9,-20 c14,5,30,10,40,10 c11,0,13,-7,13,-48 l0,-461 c0,-173,-14,-210,-70,-242 c0,-5,6,-20,9,-21 c63,24,110,53,128,139 c83,31,140,70,140,207 l0,443 c0,26,-5,32,-17,32 c-19,0,-70,-14,-116,-36 l0,4 c0,26,-5,32,-17,32 Z M191,-41 c2,17,3,35,3,56 l0,535 c16,7,35,13,46,13 c11,0,13,-7,13,-48 l0,-379 c0,-115,-13,-147,-62,-177 Z M191,-41" fill="rgb(0,0,0)" transform="matrix(1,0,0,-1,-50.0,760.0)"/>
</svg>