<?xml version="1.0" encoding="UTF-8"?>
<svg width="498.0" height="1124.0" viewBox="0 0 498.0 1124.0" version="1.1" xmlns="http://www.w3.org/2000/svg" xmlns:xlink="http://www.w3.org/1999/xlink">
 <path d="M416,240 c68,0,109,28,152,78 c0,6,-8,16,-14,18 c-23,-18,-47,-26,-94,-26 c-79,0,-159,40,-238,40 c-68,0,-109,-28,-152,-78 c0,-6,8,-16,14,-18 c23,18,47,26,94,26 c79,0,159,-40,238,-40 Z M70,82 c0,-6,8,-16,14,-18 c23,18,47,26,94,26 c79,0,159,-40,238,-40 c68,0,109,28,152,78 c0,6,-8,16,-14,18 c-23,-18,-47,-26,-94,-26 c-79,0,-159,40,-238,40 c-68,0,-109,-28,-152,-78 Z M70,82" fill="rgb(0,0,0)" transform="matrix(1,0,0,-1,-70.0,760.0)"/>
</svg>