<?xml version="1.0" encoding="UTF-8"?>
<svg width="566.0" height="1124.0" viewBox="0 0 566.0 1124.0" version="1.1" xmlns="http://www.w3.org/2000/svg" xmlns:xlink="http://www.w3.org/1999/xlink">
 <path d="M532,329 c-59,0,-133,-69,-208.0,-188.0 c-89.0,133,-132.0,186,-196.0,186 c-40,0,-70,-23,-108,-63.0 c0,-6,10,-17.0,16,-17.0 c15,14,32,23,45,23 c46,0,89,-50,203.0,-209 c6,-3,17,-2,22,1 c94.0,145.0,146.0,193.0,186.0,193.0 c16,0,30,-13,40,-36 c31,6,54,27,54,57 c0,32,-24,53,-54,53 Z M378,312 c0,16,-34,50.0,-50,50.0 c-16,0,-50,-34,-50,-50 c0,-16,34,-50.0,50,-50.0 c16,0,50,34,50,50 Z M378,312" fill="rgb(0,0,0)" transform="matrix(1,0,0,-1,-20.0,760.0)"/>
</svg>