<?xml version="1.0" encoding="UTF-8"?>
<svg width="332.8113883008419" height="1124.0" viewBox="0 0 332.8113883008419 1124.0" version="1.1" xmlns="http://www.w3.org/2000/svg" xmlns:xlink="http://www.w3.org/1999/xlink">
 <path d="M93,430 c0,-63,76,-131,207,-203 c-146,-81,-205,-121,-205,-181 c0,-40,23,-70,63,-108 c6,0,17,10,17,16 c-14,15,-23,32,-23,45 c0,44,57,85,239,193 c3,6,2,17,-1,22 c-168,89,-223,138,-223,176 c0,16,13,30,36,40 c-6,31,-27,54,-57,54 c-32,0,-53,-24,-53,-54 Z M60,236 c0,-16,34,-50,50,-50 c16,0,50,34,50,50 c0,16,-34,50,-50,50 c-16,0,-50,-34,-50,-50 Z M60,236" fill="rgb(0,0,0)" transform="matrix(1,0,0,-1,-60.0,760.0)"/>
</svg>