<?xml version="1.0" encoding="UTF-8"?>
<svg width="332.8113883008419" height="1124.0" viewBox="0 0 332.8113883008419 1124.0" version="1.1" xmlns="http://www.w3.org/2000/svg" xmlns:xlink="http://www.w3.org/1999/xlink">
 <path d="M340.0,-8 c0,63,-76.0,131,-207.0,203.0 c146,81.0,205,121.0,205,181.0 c0,40,-23,70,-63,108 c-6,0,-17,-10,-17,-16 c14,-15,23,-32,23,-45 c0,-44,-57,-85,-239,-193.0 c-3,-6,-2,-17,1,-22 c168.0,-89.0,223.0,-138.0,223.0,-176.0 c0,-16,-13,-30,-36,-40 c6,-31,27,-54,57,-54 c32,0,53,24,53,54 Z M373,186 c0,16,-34,50,-50,50 c-16,0.0,-50,-34.0,-50,-50.0 c0,-16,34,-50.0,50,-50.0 c16,0,50,34,50,50 Z M373,186" fill="rgb(0,0,0)" transform="matrix(1,0,0,-1,-40.1886116991581,760.0)"/>
</svg>