<?xml version="1.0" encoding="UTF-8"?>
<svg width="957.0" height="1124.0" viewBox="0 0 957.0 1124.0" version="1.1" xmlns="http://www.w3.org/2000/svg" xmlns:xlink="http://www.w3.org/1999/xlink">
 <path d="M795,-14 c87,0,162,33,162,94 c0,31,-19,48,-46,48 c-11,0,-23,-3,-29,-7 c0,-76,-29,-104,-79,-104 c-74,0,-112,57,-112,151 c0,79,26,126,81,162 l64,0 c50,0,91,19,140,61 l1,3 c0,4,-6,16,-11,17 c-23,-8,-39,-11,-104,-11 l-701,0 c-50,0,-91,-19,-140,-61 l-1,-3 c0,-4,6,-16,11,-17 c23,8,39,11,104,11 l59,0 l0,-5 c-75,-44,-112,-105,-112,-173 c0,-95,60,-166,170,-166 c54,0,102,17,136,45 c28,-28,70,-45,124,-45 c55,0,105,18,138,48 c33,-30,81,-48,145,-48 Z M171,168 c0,79,26,126,81,162 l202,0 l0,-5 c-75,-44,-112,-105,-112,-173 c0,-36,9,-69,26,-96 c-22,-20,-51,-32,-84,-32 c-73,0,-113,58,-113,144 Z M431,168 c0,79,26,126,81,162 l202,0 l0,-5 c-75,-44,-112,-105,-112,-173 c0,-36,9,-68,28,-94 c-23,-21,-52,-34,-86,-34 c-73,0,-113,58,-113,144 Z M431,168" fill="rgb(0,0,0)" transform="matrix(1,0,0,-1,-20.0,760.0)"/>
</svg>