<?xml version="1.0" encoding="UTF-8"?>
<svg width="933.0" height="1124.0" viewBox="0 0 933.0 1124.0" version="1.1" xmlns="http://www.w3.org/2000/svg" xmlns:xlink="http://www.w3.org/1999/xlink">
 <path d="M61,-242 c101,0,169,69,169,207 l0,715 c0,26,-5,32,-17,32 c-20,0,-76,-16,-124,-40 l-1,-2 c0,-6,6,-19,9,-20 c14,6,30,12,40,12 c11,0,13,-7,13,-48 l0,-692 c0,-96,-31,-130,-75,-130 c-35,0,-56,26,-56,77 c0,8,1,16,2,22 c-5,3,-14,5,-24,5 c-38,0,-57,-23,-57,-53 c0,-47,37,-85,121,-85 Z M150,0 l292,0 c28,0,35,7,35,35 c0,28,-6,35,-32,35 l-6,0 l0,5 c75,44,112,105,112,173 c0,95,-60,166,-170,166 c-61,0,-115,-29,-148,-75 l-9,1 l0,-17 l4,0 l0,-32 c28,39,71,65,121,65 c73,0,113,-50,113,-124 c0,-79,-26,-126,-81,-162 l-231,0 Z M410,0 l292,0 c28,0,35,7,35,35 c0,28,-6,35,-32,35 l-6,0 l0,5 c75,44,112,105,112,173 c0,95,-60,166,-170,166 c-61,0,-115,-29,-148,-75 l-9,1 l0,-17 l4,0 l0,-32 c28,39,71,65,121,65 c73,0,113,-50,113,-124 c0,-79,-26,-126,-81,-162 l-231,0 Z M702,0 l10,0 c57,0,104,22,160,71 l1,3 c0,4,-6,16,-11,17 c-27,-15,-46,-21,-124,-21 l-36,0 c-28,0,-35,-7,-35,-35 c0,-28,7,-35,35,-35 Z M702,0" fill="rgb(0,0,0)" transform="matrix(1,0,0,-1,60.0,760.0)"/>
</svg>