<?xml version="1.0" encoding="UTF-8"?>
<svg width="383.0" height="1124.0" viewBox="0 0 383.0 1124.0" version="1.1" xmlns="http://www.w3.org/2000/svg" xmlns:xlink="http://www.w3.org/1999/xlink">
 <path d="M176,712 c-74,-31,-106,-60,-106,-98 c0,-114,293,-308,293,-476 c0,-70,-54,-109,-122,-109 c-75,0,-113,49,-113,129 c0,35,11,55,37,76 c0,7,-7,18,-12,19 c-76,-37,-103,-72,-103,-126 c0,-80,50,-139,154,-139 c133,0,229,88,229,188 c0,172,-290,357,-290,461 c0,21,13,36,43,54 c0,6,-5,18,-10,21 Z M176,712" fill="rgb(0,0,0)" transform="matrix(1,0,0,-1,-50.0,760.0)"/>
</svg>