<?xml version="1.0" encoding="UTF-8"?>
<svg width="420.0" height="1124.0" viewBox="0 0 420.0 1124.0" version="1.1" xmlns="http://www.w3.org/2000/svg" xmlns:xlink="http://www.w3.org/1999/xlink">
 <path d="M351,364 l-230,-328 l49,0 l230,328 Z M222,-10 c128,0,248,103,248,244 c0,99,-60,176,-172,176 c-128,0,-248,-102,-248,-244 c0,-99,60,-176,172,-176 Z M125,217 c0,94,47,146,121,146 c87,0,149,-73,149,-180 c0,-94,-47,-146,-121,-146 c-87,0,-149,72,-149,180 Z M125,217" fill="rgb(0,0,0)" transform="matrix(1,0,0,-1,-50.0,760.0)"/>
</svg>