<?xml version="1.0" encoding="UTF-8"?>
<svg width="447.0" height="1124.0" viewBox="0 0 447.0 1124.0" version="1.1" xmlns="http://www.w3.org/2000/svg" xmlns:xlink="http://www.w3.org/1999/xlink">
 <path d="M13,-291 c0,-6,5,-18,10,-21 c248,122,437,283,437,507 c0,122,-60,215,-172,215 c-123,0,-238,-102,-238,-244 c0,-99,57,-176,162,-176 c50,0,100,18,143,51 l5,-2 c-50,-132,-180,-230,-347,-330 Z M125,217 c0,94,43,146,111,146 c85,0,146,-81,146,-200 c0,-23,-2,-44,-6,-65 c-33,-35,-76,-53,-126,-53 c-73,0,-125,69,-125,172 Z M125,217" fill="rgb(0,0,0)" transform="matrix(1,0,0,-1,-13.0,760.0)"/>
</svg>