<?xml version="1.0" encoding="UTF-8"?>
<svg width="416.0" height="1124.0" viewBox="0 0 416.0 1124.0" version="1.1" xmlns="http://www.w3.org/2000/svg" xmlns:xlink="http://www.w3.org/1999/xlink">
 <path d="M50,170 c0,-110,76,-180,178,-180 c25,0,49,4,72,11 l-108,-118 c0,-6,24,-30,30,-30 l244,265 c0,4,-19,23,-23,23 c-52,-55,-97,-82,-164,-82 c-90,0,-151,57,-151,163 c0,84,56,140,127,140 c46,0,70,-40,83,-84 c3,-1,7,-1,10,-1 c26,0,61,16,61,57 c0,44,-31,76,-101,76 c-124,0,-258,-103,-258,-240 Z M50,170" fill="rgb(0,0,0)" transform="matrix(1,0,0,-1,-50.0,760.0)"/>
</svg>