<?xml version="1.0" encoding="UTF-8"?>
<svg width="657.0" height="1124.0" viewBox="0 0 657.0 1124.0" version="1.1" xmlns="http://www.w3.org/2000/svg" xmlns:xlink="http://www.w3.org/1999/xlink">
 <path d="M-27,330 l107,0 l0,-164 c0,-101,53,-176,185,-176 c133,0,236,75,236,194 l0,146 l53,0 c30,0,53,18,65,53 c0,6,-6,15,-11,17 l-581,0 c-30,0,-52,-18,-65,-53 c0,-6,6,-15,11,-17 Z M160,176 l0,154 l90,0 l0,-161 c0,-16,4,-21,11,-21 c19,0,69,27,69,39 l0,143 l91,0 l0,-165 c0,-96,-53,-136,-122,-136 c-88,0,-139,61,-139,147 Z M160,176" fill="rgb(0,0,0)" transform="matrix(1,0,0,-1,38.0,760.0)"/>
</svg>