<?xml version="1.0" encoding="UTF-8"?>
<svg width="418.0" height="1124.0" viewBox="0 0 418.0 1124.0" version="1.1" xmlns="http://www.w3.org/2000/svg" xmlns:xlink="http://www.w3.org/1999/xlink">
 <path d="M51,-242 c101,0,169,69,169,207 l0,365 l63,0 c30,0,53,18,65,53 c0,6,-6,15,-11,17 l-310,0 c-30,0,-52,-18,-65,-53 c0,-6,6,-15,11,-17 l167,0 l0,-408 c0,-96,-31,-130,-75,-130 c-35,0,-56,26,-56,77 c0,8,1,16,2,22 c-5,3,-14,5,-24,5 c-38,0,-57,-23,-57,-53 c0,-47,37,-85,121,-85 Z M51,-242" fill="rgb(0,0,0)" transform="matrix(1,0,0,-1,70.0,760.0)"/>
</svg>