<?xml version="1.0" encoding="UTF-8"?>
<svg width="710.0" height="1124.0" viewBox="0 0 710.0 1124.0" version="1.1" xmlns="http://www.w3.org/2000/svg" xmlns:xlink="http://www.w3.org/1999/xlink">
 <path d="M51,-242 c101,0,169,69,169,207 l0,35 c15,-7,33,-10,55,-10 c54,0,106,23,134,76 l5,-1 c5,-50,34,-75,91,-75 c28,0,56,6,72,14 l1,2 c0,6,-6,19,-9,20 c-8,-3,-20,-5,-32,-5 c-30,0,-46,17,-46,59 l0,250 l84,0 c30,0,53,18,65,53 c0,6,-6,15,-11,17 l-602,0 c-30,0,-52,-18,-65,-53 c0,-6,6,-15,11,-17 l167,0 l0,-408 c0,-96,-31,-130,-75,-130 c-35,0,-56,26,-56,77 c0,8,1,16,2,22 c-5,3,-14,5,-24,5 c-38,0,-57,-23,-57,-53 c0,-47,37,-85,121,-85 Z M220,126 l0,204 l191,0 l0,-165 c0,-89,-49,-126,-112,-126 c-50,0,-79,36,-79,87 Z M220,126" fill="rgb(0,0,0)" transform="matrix(1,0,0,-1,70.0,760.0)"/>
</svg>