<?xml version="1.0" encoding="UTF-8"?>
<svg width="732.0" height="1124.0" viewBox="0 0 732.0 1124.0" version="1.1" xmlns="http://www.w3.org/2000/svg" xmlns:xlink="http://www.w3.org/1999/xlink">
 <path d="M-27,330 l320,0 l0,-122 c-31,25,-62,42,-93,42 c-87,0,-166,-70,-166,-149 c0,-64,51,-113,116,-113 c62,0,114,43,162,91 c46,-48,95,-91,144,-91 c87,0,166,70,166,149 c0,64,-51,113,-116,113 c-50,0,-93,-28,-133,-63 l0,143 l256,0 c30,0,53,18,65,53 c0,6,-6,15,-11,17 l-656,0 c-30,0,-52,-18,-65,-53 c0,-6,6,-15,11,-17 Z M111,138 c0,39,18,67,49,67 c36,0,80,-51,129,-103 c-36,-36,-69,-65,-102,-65 c-41,0,-76,45,-76,101 Z M367,136 c36,36,70,65,103,65 c41,0,75,-45,75,-100 c0,-40,-18,-68,-49,-68 c-36,0,-80,50,-129,103 Z M367,136" fill="rgb(0,0,0)" transform="matrix(1,0,0,-1,38.0,760.0)"/>
</svg>