<?xml version="1.0" encoding="UTF-8"?>
<svg width="533.0" height="1124.0" viewBox="0 0 533.0 1124.0" version="1.1" xmlns="http://www.w3.org/2000/svg" xmlns:xlink="http://www.w3.org/1999/xlink">
 <path d="M209,-77 c114,0,214,68,214,137 c0,128,-309,121,-309,198 c0,22,24,42,87,72 l229,0 c30,0,53,18,65,53 c0,6,-6,15,-11,17 l-457,0 c-30,0,-52,-18,-65,-53 c0,-6,6,-15,11,-17 l160,0 c-56,-28,-89,-57,-89,-103 c0,-122,309,-113,309,-198 c0,-33,-38,-57,-84,-57 c-51,0,-73,21,-86,86 c-4,1,-8,1,-10,1 c-34,0,-71,-19,-71,-62 c0,-41,33,-74,107,-74 Z M209,-77" fill="rgb(0,0,0)" transform="matrix(1,0,0,-1,38.0,760.0)"/>
</svg>