<?xml version="1.0" encoding="UTF-8"?>
<svg width="597.0" height="1124.0" viewBox="0 0 597.0 1124.0" version="1.1" xmlns="http://www.w3.org/2000/svg" xmlns:xlink="http://www.w3.org/1999/xlink">
 <path d="M290,-249 l103,34 c37,12,38,16,38,59 l0,486 l63,0 c30,0,53,18,65,53 c0,6,-6,15,-11,17 l-521,0 c-30,0,-52,-18,-65,-53 c0,-6,6,-15,11,-17 l107,0 l0,-214 c0,-72,36,-126,125,-126 c58,0,103,20,141,66 l5,-1 l0,-141 c0,-108,-1,-112,-70,-142 c0,-5,6,-20,9,-21 Z M160,126 l0,204 l191,0 l0,-165 c0,-89,-49,-126,-112,-126 c-50,0,-79,36,-79,87 Z M160,126" fill="rgb(0,0,0)" transform="matrix(1,0,0,-1,38.0,760.0)"/>
</svg>