<?xml version="1.0" encoding="UTF-8"?>
<svg width="824.0" height="1124.0" viewBox="0 0 824.0 1124.0" version="1.1" xmlns="http://www.w3.org/2000/svg" xmlns:xlink="http://www.w3.org/1999/xlink">
 <path d="M278,410 c-110,0.0,-228,-103.0,-228,-240.0 c-0.0,-110,76.0,-180,178.0,-180.0 c82,0,155,49,202,124 l11,-2 l0,17 l-4,0 l0.0,39 c-55.0,-71,-104.0,-105,-174,-105 c-80.0,0.0,-135.0,56.0,-135,157.0 c0,83.0,39,139.0,87,139.0 c32,0,49,-29,58,-61 c3,-1,7,-1,10,-1 c26,0,61,16,61,57 c0,32,-20,56,-66,56 Z M637,410 c-110,0.0,-228,-103.0,-228,-240.0 c-0.0,-110,76.0,-180,178,-180.0 c82,0,155,49,202,124 l11,-2 l0,17 l-4,0 l0,39 c-55,-71,-104,-105,-174,-105 c-80,0.0,-135.0,56.0,-135,157.0 c0,83.0,39,139.0,87,139.0 c32,0,49,-29,58,-61 c3,-1,7,-1,10,-1 c26,0,61,16,61,57 c0,32,-20,56,-66,56 Z M794,614 l0,-414 l80,0 l0,480 c0,26,-5,32,-17,32 c-20,0,-76,-16,-124,-40 l-1,-2 c0,-6,6,-19,9,-20 c14,6,30,12,40,12 c11,0,13,-7,13,-48 Z M733,-312 l103,34 c37,12,38,16,38,59 l0,419 l-80,0 l0,-349 c0,-108,-1,-112,-70,-142 c0,-5,6,-20,9,-21 Z M733,-312" fill="rgb(0,0,0)" transform="matrix(1,0,0,-1,-50.0,760.0)"/>
</svg>