<?xml version="1.0" encoding="UTF-8"?>
<svg width="493.0" height="1124.0" viewBox="0 0 493.0 1124.0" version="1.1" xmlns="http://www.w3.org/2000/svg" xmlns:xlink="http://www.w3.org/1999/xlink">
 <path d="M178,-307 c55,0,100,26,140,67 c0,4,-9,17,-13,17 c-25,-17,-52,-26,-80,-26 c-53,0,-77,26,-77,79 c0,172,330,308,330,486 c0,57,-28,98,-93,98 c-47,0,-91,-23,-122,-52 c0,-4,9,-19,13,-20 c20,16,43,24,62,24 c36,0,60,-22,60,-73 c0,-82,-59,-156,-128,-225 c-29,98,-61,192,-89,255 c-32,72,-55,91,-86,91 c-30,0,-72,-24,-110,-66 c0,-4,11,-17,15,-17 c18,17,31,24,43,24 c17,0,34,-15,60,-66 c32,-63,75,-173,107,-280 c-74,-71,-142,-139,-142,-207 c0,-70,36,-109,110,-109 Z M178,-307" fill="rgb(0,0,0)" transform="matrix(1,0,0,-1,15.0,760.0)"/>
</svg>