<?xml version="1.0" encoding="UTF-8"?>
<svg width="587.0" height="1124.0" viewBox="0 0 587.0 1124.0" version="1.1" xmlns="http://www.w3.org/2000/svg" xmlns:xlink="http://www.w3.org/1999/xlink">
 <path d="M288,-185 c183,0,327,141,327,255 c0,55,-23,80,-61,80 c-27,0,-52,-17,-62,-37 c30,-29,42,-54,42,-89 c0,-90,-72,-160,-196,-160 c-125,0,-209,82,-209,206 c0,102,57,183,199,260 l138,0 c57,0,104,22,160,71 l1,3 c0,4,-6,16,-11,17 c-27,-15,-46,-21,-124,-21 l-291,0 c-57,0,-104,-22,-160,-71 l-1,-3 c0,-4,6,-16,11,-17 c27,15,46,21,124,21 l88,0 l0,-4 c-144,-73,-212,-163,-212,-284 c0,-129,86,-227,237,-227 Z M288,-185" fill="rgb(0,0,0)" transform="matrix(1,0,0,-1,-40.0,760.0)"/>
</svg>