<?xml version="1.0" encoding="UTF-8"?>
<svg width="621.0" height="1124.0" viewBox="0 0 621.0 1124.0" version="1.1" xmlns="http://www.w3.org/2000/svg" xmlns:xlink="http://www.w3.org/1999/xlink">
 <path d="M255,0 l255,0 c57,0,104,22,160,71 l1,3 c0,4,-6,16,-11,17 c-27,-15,-46,-21,-124,-21 l-51,0 l0,610 c0,26,-5,32,-17,32 c-20,0,-76,-16,-124,-40 l-1,-2 c0,-6,6,-19,9,-20 c14,6,30,12,40,12 c11,0,13,-7,13,-48 l0,-227 c-26,15,-57,23,-94,23 c-125,0,-261,-106,-261,-238 c0,-96,72,-172,205,-172 Z M128,220 c0,90,52,140,134,140 c85,0,143,-69,143,-174 l0,-116 l-112,0 c-103,0,-165,60,-165,150 Z M128,220" fill="rgb(0,0,0)" transform="matrix(1,0,0,-1,-50.0,760.0)"/>
</svg>