<?xml version="1.0" encoding="UTF-8"?>
<svg width="142.0" height="1124.0" viewBox="0 0 142.0 1124.0" version="1.1" xmlns="http://www.w3.org/2000/svg" xmlns:xlink="http://www.w3.org/1999/xlink">
 <path d="M90,614 l0,-414 l80,0 l0,480 c0,26,-5,32,-17,32 c-20,0,-76,-16,-124,-40 l-1,-2 c0,-6,6,-19,9,-20 c14,6,30,12,40,12 c11,0,13,-7,13,-48 Z M49,-12 l83,29 c36,13,38,16,38,59 l0,124 l-80,0 l0,-74 c0,-90,-1,-94,-50,-117 c0,-5,6,-20,9,-21 Z M49,-12" fill="rgb(0,0,0)" transform="matrix(1,0,0,-1,-28.0,760.0)"/>
</svg>