<?xml version="1.0" encoding="UTF-8"?>
<svg width="457.0" height="1124.0" viewBox="0 0 457.0 1124.0" version="1.1" xmlns="http://www.w3.org/2000/svg" xmlns:xlink="http://www.w3.org/1999/xlink">
 <path d="M61,-14 c24,15,46,21,108,21 c79,0,138,-13,197,-13 c50,0,91,22,140,71 l1,3 c0,4,-6,16,-11,17 c-24,-15,-46,-21,-108,-21 c-31,0,-60,2,-86,5 l0,4 c104,53,148,113,148,185 c0,88,-59,154,-169,154 c-131,0,-227,-95,-227,-189 c0,-37,20,-67,53,-67 c34,0,56,24,64,48 c-30,17,-48,42,-48,70 c0,56,40,88,107,88 c90,0,142,-54,142,-134 c0,-62,-38,-106,-128,-154 c-18,2,-35,3,-53,3 c-50,0,-91,-22,-140,-71 l-1,-3 c0,-4,6,-16,11,-17 Z M61,-14" fill="rgb(0,0,0)" transform="matrix(1,0,0,-1,-50.0,760.0)"/>
</svg>