<?xml version="1.0" encoding="UTF-8"?>
<svg width="382.0" height="1124.0" viewBox="0 0 382.0 1124.0" version="1.1" xmlns="http://www.w3.org/2000/svg" xmlns:xlink="http://www.w3.org/1999/xlink">
 <path d="M62,-12 l83,29 c36,13,38,16,38,59 l0,254 l79,0 c57,0,104,22,160,71 l1,3 c0,4,-6,16,-11,17 c-27,-15,-46,-21,-124,-21 l-122,0 c-20,0,-76,-16,-124,-40 l-1,-2 c0,-6,6,-19,9,-20 c14,6,30,12,40,12 c11,0,13,-7,13,-48 l0,-176 c0,-90,-1,-94,-50,-117 c0,-5,6,-20,9,-21 Z M62,-12" fill="rgb(0,0,0)" transform="matrix(1,0,0,-1,-41.0,760.0)"/>
</svg>