<?xml version="1.0" encoding="UTF-8"?>
<svg width="513.0" height="1124.0" viewBox="0 0 513.0 1124.0" version="1.1" xmlns="http://www.w3.org/2000/svg" xmlns:xlink="http://www.w3.org/1999/xlink">
 <path d="M212,-10 c74,0,130,45,179,113 l0,-83 c0,-26,5,-32,17,-32 c20,0,76,16,124,40 l1,2 c0,6,-7,18,-10,19 c-14,-6,-29,-11,-39,-11 c-11,0,-13,7,-13,48 l0,188 c0,90,1,94,50,117 c0,5,-6,20,-9,21 l-83,-29 c-36,-13,-38,-16,-38,-59 l0,-172 c-46,-65,-82,-96,-138,-96 c-60,0,-91,40,-91,123 l0,201 c0,26,-5,32,-17,32 c-20,0,-76,-16,-124,-40 l-1,-2 c0,-6,6,-19,9,-20 c14,6,30,12,40,12 c11,0,13,-7,13,-48 l0,-164 c0,-103,49,-160,130,-160 Z M212,-10" fill="rgb(0,0,0)" transform="matrix(1,0,0,-1,-20.0,760.0)"/>
</svg>