<?xml version="1.0" encoding="UTF-8"?>
<svg width="457.0" height="1124.0" viewBox="0 0 457.0 1124.0" version="1.1" xmlns="http://www.w3.org/2000/svg" xmlns:xlink="http://www.w3.org/1999/xlink">
 <path d="M34,-13 c45,32,75,44,119,44 c74,0,131,-43,193,-43 c46,0,85,22,130,71 l1,3 c0,4,-6,16,-11,17 c-22,-15,-42,-21,-88,-21 c-68,0,-132,43,-193,43 c-9,0,-20,-1,-30,-4 l-1,5 c185,178,276,300,276,426 c0,106,-62,184,-179,184 c-133,0,-231,-111,-231,-220 c0,-37,20,-67,53,-67 c36,0,60,22,68,44 c-26,23,-42,56,-42,93 c0,64,41,102,110,102 c90,0,143,-67,143,-166 c0,-133,-92,-251,-332,-493 c0,-5,10,-18,14,-18 Z M34,-13" fill="rgb(0,0,0)" transform="matrix(1,0,0,-1,-20.0,760.0)"/>
</svg>