<?xml version="1.0" encoding="UTF-8"?>
<svg width="430.0" height="1124.0" viewBox="0 0 430.0 1124.0" version="1.1" xmlns="http://www.w3.org/2000/svg" xmlns:xlink="http://www.w3.org/1999/xlink">
 <path d="M128,-307 c55,0,100,26,140,67 c0,4,-9,17,-13,17 c-25,-17,-52,-26,-80,-26 c-53,0,-77,26,-77,79 c0,167,350,303,350,486 c0,57,-28,98,-93,98 c-47,0,-91,-23,-122,-52 c0,-4,9,-19,13,-20 c20,16,43,24,62,24 c36,0,60,-22,60,-73 c0,-104,-107,-196,-203,-283 l0,670 c0,26,-5,32,-17,32 c-20,0,-76,-16,-124,-40 l-1,-2 c0,-6,6,-19,9,-20 c14,6,30,12,40,12 c11,0,13,-7,13,-48 l0,-682 c-40,-44,-67,-87,-67,-130 c0,-70,36,-109,110,-109 Z M128,-307" fill="rgb(0,0,0)" transform="matrix(1,0,0,-1,-18.0,760.0)"/>
</svg>