<?xml version="1.0" encoding="UTF-8"?>
<svg width="340.0" height="1124.0" viewBox="0 0 340.0 1124.0" version="1.1" xmlns="http://www.w3.org/2000/svg" xmlns:xlink="http://www.w3.org/1999/xlink">
 <path d="M316,443 c27,34,44,60,44,82 c0,29,-19,36,-62,36 c-63,0,-127,-5,-190,-5 c-36,0,-43,1,-43,15 c0,9,7,19,18,34 c-2,5,-14,13,-19,13 c-27,-34,-44,-60,-44,-82 c0,-29,19,-36,62,-36 c63,0,127,5,190,5 c36,0,43,-1,43,-15 c0,-9,-7,-19,-18,-34 c2,-5,14,-13,19,-13 Z M316,443" fill="rgb(0,0,0)" transform="matrix(1,0,0,-1,-20.0,760.0)"/>
</svg>