<?xml version="1.0" encoding="UTF-8"?>
<svg width="484.0" height="1124.0" viewBox="0 0 484.0 1124.0" version="1.1" xmlns="http://www.w3.org/2000/svg" xmlns:xlink="http://www.w3.org/1999/xlink">
 <path d="M222,-217 c116,0,227,91,227,184 c0,68,-40,103,-124,103 l-325,0 c-28,0,-35,-7,-35,-35 c0,-28,7,-35,35,-35 l275,0 c83,0,108,-18,108,-72 c0,-56,-44,-92,-96,-92 c-32,0,-46,19,-55,67 c-3,1,-7,1,-10,1 c-35,0,-73,-22,-73,-64 c0,-32,22,-57,73,-57 Z M222,-217" fill="rgb(0,0,0)" transform="matrix(1,0,0,-1,35.0,760.0)"/>
</svg>