<?xml version="1.0" encoding="UTF-8"?>
<svg width="503.0" height="1124.0" viewBox="0 0 503.0 1124.0" version="1.1" xmlns="http://www.w3.org/2000/svg" xmlns:xlink="http://www.w3.org/1999/xlink">
 <path d="M-35,35 c0,-28,7,-35,35,-35 l136,0 c14,0,27,0,40,1 c4,-109,64,-174,162,-174 c68,0,103,29,103,71 c0,25,-14,44,-35,54 c-16,-35,-47,-55,-98,-55 c-52,0,-101,29,-106,107 c168,18,266,104,266,173 c0,43,-32,74,-95,74 c-97,0,-170,-83,-191,-181 l-182,0 c-28,0,-35,-7,-35,-35 Z M209,70 c19,66,72,109,133,109 c42,0,62,-17,62,-42 c0,-42,-38,-67,-188,-67 Z M209,70" fill="rgb(0,0,0)" transform="matrix(1,0,0,-1,35.0,760.0)"/>
</svg>