<?xml version="1.0" encoding="UTF-8"?>
<svg width="126.0" height="1124.0" viewBox="0 0 126.0 1124.0" version="1.1" xmlns="http://www.w3.org/2000/svg" xmlns:xlink="http://www.w3.org/1999/xlink">
 <path d="M143,308 c20,0,63,43,63,63 c0,20,-43,63,-63,63 c-20,0,-63,-43,-63,-63 c0,-20,43,-63,63,-63 Z M80,29 c0,-20,43,-63,63,-63 c20,0,63,43,63,63 c0,20,-43,63,-63,63 c-20,0,-63,-43,-63,-63 Z M86,200 c0,-18,39,-57,57,-57 c18,0,57,39,57,57 c0,18,-39,57,-57,57 c-18,0,-57,-39,-57,-57 Z M86,200" fill="rgb(0,0,0)" transform="matrix(1,0,0,-1,-80.0,760.0)"/>
</svg>