<?xml version="1.0" encoding="UTF-8"?>
<svg width="566.0" height="1124.0" viewBox="0 0 566.0 1124.0" version="1.1" xmlns="http://www.w3.org/2000/svg" xmlns:xlink="http://www.w3.org/1999/xlink">
 <path d="M74,93 c59,0,133,69,208,188 c89,-133,132,-186,196,-186 c40,0,70,23,108,63 c0,6,-10,17,-16,17 c-15,-14,-32,-23,-45,-23 c-46,0,-89,50,-203,209 c-6,3,-17,2,-22,-1 c-94,-145,-146,-193,-186,-193 c-16,0,-30,13,-40,36 c-31,-6,-54,-27,-54,-57 c0,-32,24,-53,54,-53 Z M228,110 c0,-16,34,-50,50,-50 c16,0,50,34,50,50 c0,16,-34,50,-50,50 c-16,0,-50,-34,-50,-50 Z M228,110" fill="rgb(0,0,0)" transform="matrix(1,0,0,-1,-20.0,760.0)"/>
</svg>