<?xml version="1.0" encoding="UTF-8"?>
<svg width="352.0" height="1124.0" viewBox="0 0 352.0 1124.0" version="1.1" xmlns="http://www.w3.org/2000/svg" xmlns:xlink="http://www.w3.org/1999/xlink">
 <path d="M242,-242 c75,0,138,32,138,85 c0,30,-17,47,-43,47 c-11,0,-22,-3,-28,-7 c0,-69,-21,-94,-59,-94 c-53,0,-80,53,-80,149 l0,742 c0,26,-5,32,-17,32 c-20,0,-76,-16,-124,-40 l-1,-2 c0,-6,6,-19,9,-20 c14,6,30,12,40,12 c11,0,13,-7,13,-48 l0,-692 c0,-97,51,-164,152,-164 Z M242,-242" fill="rgb(0,0,0)" transform="matrix(1,0,0,-1,-28.0,760.0)"/>
</svg>