<?xml version="1.0" encoding="UTF-8"?>
<svg width="617.0" height="1124.0" viewBox="0 0 617.0 1124.0" version="1.1" xmlns="http://www.w3.org/2000/svg" xmlns:xlink="http://www.w3.org/1999/xlink">
 <path d="M302,-242 c102,0,188,40,188,105 c0,30,-17,47,-43,47 c-11,0,-22,-3,-28,-7 c0,-84,-39,-114,-109,-114 c-93,0,-140,71,-140,199 l0,342 l212,0 l0,-5 c-75,-44,-112,-105,-112,-173 c0,-94,65,-166,193,-166 c87,0,162,33,162,94 c0,31,-19,48,-46,48 c-11,0,-23,-3,-29,-7 c0,-76,-29,-104,-79,-104 c-74,0,-112,57,-112,151 c0,79,26,126,81,162 l64,0 c50,0,91,19,140,61 l1,3 c0,4,-6,16,-11,17 c-23,-8,-39,-11,-104,-11 l-360,0 l0,280 c0,26,-5,32,-17,32 c-20,0,-76,-16,-124,-40 l-1,-2 c0,-6,6,-19,9,-20 c14,6,30,12,40,12 c11,0,13,-7,13,-48 l0,-642 c0,-127,71,-214,212,-214 Z M302,-242" fill="rgb(0,0,0)" transform="matrix(1,0,0,-1,-28.0,760.0)"/>
</svg>