<?xml version="1.0" encoding="UTF-8"?>
<svg width="877.0" height="1124.0" viewBox="0 0 877.0 1124.0" version="1.1" xmlns="http://www.w3.org/2000/svg" xmlns:xlink="http://www.w3.org/1999/xlink">
 <path d="M412,-242 c123,0,228,44,228,115 c0,30,-17,47,-43,47 c-11,0,-22,-3,-28,-7 c0,-91,-54,-124,-149,-124 c-166,0,-250,82,-250,229 l0,312 l212,0 l0,-5 c-75,-44,-112,-105,-112,-173 c0,-95,60,-166,170,-166 c55,0,105,18,138,48 c33,-30,81,-48,145,-48 c87,0,162,33,162,94 c0,31,-19,48,-46,48 c-11,0,-23,-3,-29,-7 c0,-76,-29,-104,-79,-104 c-74,0,-112,57,-112,151 c0,79,26,126,81,162 l64,0 c50,0,91,19,140,61 l1,3 c0,4,-6,16,-11,17 c-23,-8,-39,-11,-104,-11 l-620,0 l0,280 c0,26,-5,32,-17,32 c-20,0,-76,-16,-124,-40 l-1,-2 c0,-6,6,-19,9,-20 c14,6,30,12,40,12 c11,0,13,-7,13,-48 l0,-612 c0,-145,108,-244,322,-244 Z M359,168 c0,79,26,126,81,162 l202,0 l0,-5 c-75,-44,-112,-105,-112,-173 c0,-36,9,-68,28,-94 c-23,-21,-52,-34,-86,-34 c-73,0,-113,58,-113,144 Z M359,168" fill="rgb(0,0,0)" transform="matrix(1,0,0,-1,-28.0,760.0)"/>
</svg>