<?xml version="1.0" encoding="UTF-8"?>
<svg width="290.0" height="1124.0" viewBox="0 0 290.0 1124.0" version="1.1" xmlns="http://www.w3.org/2000/svg" xmlns:xlink="http://www.w3.org/1999/xlink">
 <path d="M61,-242 c101,0,169,69,169,207 l0,715 c0,26,-5,32,-17,32 c-20,0,-76,-16,-124,-40 l-1,-2 c0,-6,6,-19,9,-20 c14,6,30,12,40,12 c11,0,13,-7,13,-48 l0,-692 c0,-96,-31,-130,-75,-130 c-35,0,-56,26,-56,77 c0,8,1,16,2,22 c-5,3,-14,5,-24,5 c-38,0,-57,-23,-57,-53 c0,-47,37,-85,121,-85 Z M61,-242" fill="rgb(0,0,0)" transform="matrix(1,0,0,-1,60.0,760.0)"/>
</svg>