<?xml version="1.0" encoding="UTF-8"?>
<svg width="383.0" height="1124.0" viewBox="0 0 383.0 1124.0" version="1.1" xmlns="http://www.w3.org/2000/svg" xmlns:xlink="http://www.w3.org/1999/xlink">
 <path d="M204,71 c31,0,59,6,85,16 c56,-57,74,-104,74,-149 c0,-72,-54,-112,-122,-112 c-75,0,-113,45,-113,119 c0,30,8,48,27,66 c0,7,-7,18,-12,19 c-69,-34,-93,-66,-93,-116 c0,-72,50,-126,154,-126 c133,0,229,88,229,188 c0,59,-30,113,-78,155 c30,32,48,72,48,115 c0,146,-260,303,-260,391 c0,21,13,36,43,54 c0,6,-5,18,-10,21 c-74,-31,-106,-60,-106,-98 c0,-97,263,-263,263,-406 c0,-64,-41,-99,-92,-99 c-62,0,-93,41,-93,109 c0,35,11,55,37,76 c0,7,-7,18,-12,19 c-76,-37,-103,-72,-103,-126 c0,-66,44,-116,134,-116 Z M204,71" fill="rgb(0,0,0)" transform="matrix(1,0,0,-1,-50.0,760.0)"/>
</svg>