<?xml version="1.0" encoding="UTF-8"?>
<svg width="410.0" height="1124.0" viewBox="0 0 410.0 1124.0" version="1.1" xmlns="http://www.w3.org/2000/svg" xmlns:xlink="http://www.w3.org/1999/xlink">
 <path d="M97,-228 c0,-6,5,-18,10,-21 c200,106,353,247,353,444 c0,122,-60,215,-172,215 c-123,0,-238,-102,-238,-244 c0,-99,57,-176,162,-176 c50,0,100,18,143,51 l4,-2 c-43,-105,-140,-185,-262,-267 Z M125,217 c0,94,43,146,111,146 c85,0,146,-81,146,-200 c0,-23,-2,-45,-6,-66 c-33,-34,-76,-52,-126,-52 c-73,0,-125,69,-125,172 Z M125,217" fill="rgb(0,0,0)" transform="matrix(1,0,0,-1,-50.0,760.0)"/>
</svg>