<?xml version="1.0" encoding="UTF-8"?>
<svg width="520.0" height="1124.0" viewBox="0 0 520.0 1124.0" version="1.1" xmlns="http://www.w3.org/2000/svg" xmlns:xlink="http://www.w3.org/1999/xlink">
 <path d="M455,498 c-54,0,-78,-43,-127,-134 c-52,-96,-109,-227,-160,-304 c-38,-57,-64,-69,-96,-69 c-23,0,-39,6,-51,23 c-14,-16,-21,-34,-21,-56 c0,-35,21,-54,57,-54 c46,0,78,28,142,130 c53,84,109,214,161,304 c33,57,62,73,97,73 c21,0,39,-7,50,-19 c8,10,13,26,13,44 c0,32,-18,62,-65,62 Z M222,-10 c128,0,248,103,248,244 c0,99,-60,176,-172,176 c-128,0,-248,-102,-248,-244 c0,-99,60,-176,172,-176 Z M125,217 c0,94,47,146,121,146 c87,0,149,-73,149,-180 c0,-94,-47,-146,-121,-146 c-87,0,-149,72,-149,180 Z M125,217" fill="rgb(0,0,0)" transform="matrix(1,0,0,-1,0.0,760.0)"/>
</svg>