<?xml version="1.0" encoding="UTF-8"?>
<svg width="542.0" height="1124.0" viewBox="0 0 542.0 1124.0" version="1.1" xmlns="http://www.w3.org/2000/svg" xmlns:xlink="http://www.w3.org/1999/xlink">
 <path d="M449,-12 c31,0,70,22,109,62 c0,5,-11,19,-15,19 c-21,-17,-35,-23,-49,-23 c-17,0,-32,14,-71,95 c-25,52,-51,120,-78,189 l56,0 c57,0,104,22,160,71 l1,3 c0,4,-6,16,-11,17 c-27,-15,-46,-21,-124,-21 l-231,0 c-57,0,-104,-22,-160,-71 l-1,-3 c0,-4,6,-16,11,-17 c27,15,46,21,124,21 l85,0 c-29,-74,-63,-149,-89,-195 c-17,-29,-33,-41,-51,-41 c-15,0,-32,9,-50,25 c-27,-17,-45,-44,-45,-70 c0,-39,22,-61,55,-61 c37,0,67,17,104,87 c32,60,69,143,100,220 c29,-75,59,-151,88,-216 c32,-72,51,-91,82,-91 Z M449,-12" fill="rgb(0,0,0)" transform="matrix(1,0,0,-1,-20.0,760.0)"/>
</svg>