<?xml version="1.0" encoding="UTF-8"?>
<svg width="347.0" height="1124.0" viewBox="0 0 347.0 1124.0" version="1.1" xmlns="http://www.w3.org/2000/svg" xmlns:xlink="http://www.w3.org/1999/xlink">
 <path d="M118,352 c-46,0,-71,-30,-71,-60 c0,-10,3,-22,8,-31 c7,3,17,5,27,5 c35,0,58,-18,58,-53 c0,-51,-39,-103,-136,-171 c0,-7,9,-20,15,-21 c126,78,187,147,187,231 c0,8,-1,16,-2,24 c7,2,15,3,23,3 c35,0,58,-18,58,-53 c0,-51,-39,-103,-136,-171 c0,-7,9,-20,15,-21 c126,78,187,147,187,231 c0,62,-35,100,-88,100 c-43,0,-68,-26,-71,-54 c-15,26,-41,41,-74,41 Z M118,352" fill="rgb(0,0,0)" transform="matrix(1,0,0,-1,-4.0,760.0)"/>
</svg>