<?xml version="1.0" encoding="UTF-8"?>
<svg width="658.0" height="1124.0" viewBox="0 0 658.0 1124.0" version="1.1" xmlns="http://www.w3.org/2000/svg" xmlns:xlink="http://www.w3.org/1999/xlink">
 <path d="M74,-12 c37,0,67,17,104,87 c32,60,69,143,100,220 c29,-75,59,-151,88,-216 c32,-72,51,-91,82,-91 c31,0,70,22,109,62 c0,5,-11,19,-15,19 c-21,-17,-35,-23,-49,-23 c-17,0,-32,14,-71,95 c-25,52,-51,120,-78,189 l211,0 c30,0,53,18,65,53 c0,6,-6,15,-11,17 l-582,0 c-30,0,-52,-18,-65,-53 c0,-6,6,-15,11,-17 l281,0 c-29,-74,-63,-149,-89,-195 c-17,-29,-33,-41,-51,-41 c-15,0,-32,9,-50,25 c-27,-17,-45,-44,-45,-70 c0,-39,22,-61,55,-61 Z M74,-12" fill="rgb(0,0,0)" transform="matrix(1,0,0,-1,38.0,760.0)"/>
</svg>