<?xml version="1.0" encoding="UTF-8"?>
<svg width="840.0" height="1124.0" viewBox="0 0 840.0 1124.0" version="1.1" xmlns="http://www.w3.org/2000/svg" xmlns:xlink="http://www.w3.org/1999/xlink">
 <path d="M533,-249 l103,34 c37,12,38,16,38,59 l0,486 l63,0 c30,0,53,18,65,53 c0,6,-6,15,-11,17 l-764,0 c-30,0,-52,-18,-65,-53 c0,-6,6,-15,11,-17 l107,0 l0,-214 c0,-72,34,-126,118,-126 c58,0,103,23,141,75 l5,-1 c14,-45,49,-74,111,-74 c55,0,98,20,134,66 l5,-1 l0,-141 c0,-108,-1,-112,-70,-142 c0,-5,6,-20,9,-21 Z M160,126 l0,204 l177,0 l0,-165 c0,-89,-46,-126,-105,-126 c-46,0,-72,36,-72,87 Z M417,126 l0,204 l177,0 l0,-165 c0,-89,-46,-126,-105,-126 c-46,0,-72,36,-72,87 Z M417,126" fill="rgb(0,0,0)" transform="matrix(1,0,0,-1,38.0,760.0)"/>
</svg>